<?xml version="1.0" encoding="UTF-8" standalone="no"?>
<!-- Created with Inkscape (http://www.inkscape.org/) -->

<svg
   width="105.3332mm"
   height="106.3882mm"
   viewBox="0 0 105.3332 106.3882"
   version="1.1"
   id="svg1"
   xml:space="preserve"
   sodipodi:docname="CAPITULO ESTUDIANTIL LOGO SVG.svg"
   inkscape:version="1.3 (0e150ed6c4, 2023-07-21)"
   xmlns:inkscape="http://www.inkscape.org/namespaces/inkscape"
   xmlns:sodipodi="http://sodipodi.sourceforge.net/DTD/sodipodi-0.dtd"
   xmlns="http://www.w3.org/2000/svg"
   xmlns:svg="http://www.w3.org/2000/svg"><sodipodi:namedview
     id="namedview1"
     pagecolor="#ffffff"
     bordercolor="#000000"
     borderopacity="0.25"
     inkscape:showpageshadow="2"
     inkscape:pageopacity="0.0"
     inkscape:pagecheckerboard="0"
     inkscape:deskcolor="#d1d1d1"
     inkscape:document-units="mm"
     inkscape:export-bgcolor="#ffffff00"
     inkscape:zoom="2.1694726"
     inkscape:cx="265.96326"
     inkscape:cy="185.52896"
     inkscape:window-width="2560"
     inkscape:window-height="1057"
     inkscape:window-x="-8"
     inkscape:window-y="-8"
     inkscape:window-maximized="1"
     inkscape:current-layer="g30"
     showguides="true" /><defs
     id="defs1"><style
       id="style1-44">&#10;.MsftOfcThm_Background1_Fill_v2 {&#10; fill:#FFFFFF; &#10;}&#10;</style><style
       id="style1-6">&#10;.MsftOfcThm_Background1_Fill_v2 {&#10; fill:#FFFFFF; &#10;}&#10;</style></defs><g
     inkscape:label="Layer 1"
     inkscape:groupmode="layer"
     id="layer1"
     transform="translate(-8.7874634,-166.31011)"><style
   id="style1">&#10;.MsftOfcThm_MainDark1_Stroke_v2 {&#10; stroke:#000000; &#10;}&#10;</style>&#10;<style
   id="style1-4">&#10;.MsftOfcThm_Text1_Fill_v2 {&#10; fill:#000000; &#10;}&#10;</style>&#10;<style
   id="style1-5">&#10;.MsftOfcThm_MainLight1_Fill_v2 {&#10; fill:#FFFFFF; &#10;}&#10;.MsftOfcThm_Accent3_Stroke_v2 {&#10; stroke:#196B24; &#10;}&#10;</style>&#10;<style
   id="style1-52">&#10;.MsftOfcThm_MainLight1_Fill_v2 {&#10; fill:#FFFFFF; &#10;}&#10;.MsftOfcThm_Accent3_Stroke_v2 {&#10; stroke:#196B24; &#10;}&#10;</style>&#10;<style
   id="style1-58">&#10;.MsftOfcThm_MainLight1_Fill_v2 {&#10; fill:#FFFFFF; &#10;}&#10;.MsftOfcThm_Accent3_Stroke_v2 {&#10; stroke:#196B24; &#10;}&#10;</style>&#10;<style
   id="style1-8">&#10;.MsftOfcThm_MainLight1_Fill_v2 {&#10; fill:#FFFFFF; &#10;}&#10;.MsftOfcThm_MainDark1_Stroke_v2 {&#10; stroke:#000000; &#10;}&#10;</style>&#10;<path
   id="rect39"
   style="fill:#163a5f;fill-opacity:1;stroke:none;stroke-width:1.83388;stroke-linejoin:bevel;stroke-opacity:1;paint-order:stroke markers fill"
   d="m 58.50544,166.31011 -2.644756,0.28596 -2.644757,0.28685 -2.441989,0.52441 -2.441108,0.52527 -2.260677,0.69598 -2.261581,0.69598 -2.365176,0.98898 -2.366081,0.9881 -2.532209,1.40252 -2.532211,1.4034 -1.650628,1.11567 -1.649732,1.11568 -1.974857,1.59873 -1.974857,1.59873 -1.836411,1.80287 -1.837305,1.80199 -1.923049,2.33078 -1.923053,2.3299 -1.34694,2.05275 -1.346939,2.05363 -1.002166,1.79229 -1.002165,1.79318 -0.819061,1.7932 -0.819061,1.79318 -0.783335,2.19176 -0.783332,2.19177 -0.373355,1.29517 -0.373357,1.29519 -0.386754,1.69286 -0.3867536,1.69375 -0.283143,1.69376 -0.283143,1.69289 -0.234018,2.59034 -0.234017,2.59035 0.120576,3.20891 0.120576,3.20978 0.304579,2.36157 0.30458,2.36071 0.4019386,1.88997 0.402831,1.88908 0.587722,2.08531 0.588617,2.08617 1.067368,2.70737 1.068265,2.70738 1.168298,2.26216 1.168302,2.26215 1.459483,2.24719 1.459482,2.24809 1.407675,1.7659 1.407679,1.76591 1.48985,1.5829 1.490746,1.58289 1.763168,1.61809 1.763169,1.6172 1.175447,0.901 1.175446,0.90098 1.764062,1.19752 1.763169,1.19837 1.651519,0.95114 1.651521,0.95028 2.168679,0.99865 2.169578,0.99866 2.155284,0.78573 2.155273,0.78484 2.644757,0.6731 2.644756,0.67223 0.587717,0.08 0.587718,0.0791 0.206329,0.03 0.206341,0.03 0.234908,-0.23933 0.234897,-0.23845 v -18.17467 -18.17381 l -0.118772,-0.31499 -0.118794,-0.31499 h -6.406014 -6.405111 l -0.23491,-0.23933 -0.234911,-0.23932 v -7.19208 -7.19209 l 0.234911,-0.23932 0.23491,-0.23933 h 6.405111 6.406014 l 0.125026,-0.33084 0.124155,-0.33084 -0.01696,-7.19032 -0.01696,-7.19034 0.297426,-1.69551 0.298332,-1.69552 0.51001,-1.59169 0.51001,-1.59169 0.78958,-1.50723 0.788697,-1.50721 1.159376,-1.42804 1.158482,-1.42892 1.418384,-1.07784 1.419288,-1.07785 1.371054,-0.6951 1.371948,-0.69597 1.359451,-0.42675 1.360344,-0.42674 1.774778,-0.293 1.774778,-0.29211 2.841258,-8.8e-4 h 2.840364 l 2.939503,0.29738 2.93861,0.29741 0.881593,0.12583 0.881593,0.12582 0.345662,0.183 0.345661,0.18214 -0.05191,6.31661 -0.05191,6.3175 -4.40792,0.12225 -4.408825,0.12327 -0.783325,0.24813 -0.783348,0.249 -0.882464,0.45843 -0.881593,0.45928 -0.822637,0.86316 -0.822637,0.86402 -0.489461,1.09546 -0.489473,1.09544 -0.204542,1.29516 -0.204542,1.29519 -0.0023,4.91498 -0.0023,4.91496 0.118749,0.31499 0.119608,0.31501 h 7.038382 7.038392 l 0.117879,0.31147 0.117878,0.31235 -1.019139,6.91054 -1.019127,6.91053 -0.17775,0.44785 -0.178633,0.44874 h -5.959404 -5.958512 l -0.119608,0.31499 -0.118749,0.31499 v 18.18963 18.18964 l 0.264403,0.2226 0.263476,0.22174 1.156695,-0.21204 1.156684,-0.21206 1.861431,-0.47514 1.861431,-0.47513 2.644734,-0.91771 2.644756,-0.91771 2.951118,-1.45089 2.950236,-1.45004 1.921269,-1.22832 1.92127,-1.22829 2.279425,-1.73776 2.28033,-1.73775 2.75997,-2.79358 2.760877,-2.79362 1.47199,-1.8926 1.47288,-1.89261 1.17008,-1.79319 1.17098,-1.79317 1.12007,-2.03869 1.12006,-2.03777 0.96555,-2.28856 0.96555,-2.28855 0.6815,-1.99116 0.68151,-1.99203 0.58952,-2.4478 0.58861,-2.44782 0.42427,-2.8895 0.42517,-2.88863 0.0102,-3.88552 0.0102,-3.88465 -0.24383,-2.29119 -0.24385,-2.29118 -0.58148,-2.97398 -0.58146,-2.97486 -1.06737,-3.25113 -1.06826,-3.25201 -1.24154,-2.6405 -1.24156,-2.63963 -1.23885,-2.09233 -1.23886,-2.09147 -1.61847,-2.19176 -1.61849,-2.19177 -1.76762,-2.01755 -1.766747,-2.01666 -1.82748,-1.64537 -1.82748,-1.64537 -1.46929,-1.13943 -1.470191,-1.14033 -1.819439,-1.2151 -1.820344,-1.21509 -2.19636,-1.18697 -2.196372,-1.18693 -2.077577,-0.89837 -2.076672,-0.89747 -2.188342,-0.70478 -2.187425,-0.70389 -2.763551,-0.61591 -2.764456,-0.61592 -2.669761,-0.28772 -2.669751,-0.2886 h -3.036866 z" /></g></svg>
