<?xml version="1.0" encoding="UTF-8" standalone="no"?>
<!-- Created with Inkscape (http://www.inkscape.org/) -->

<svg
   width="109.54598mm"
   height="114.3265mm"
   viewBox="0 0 109.54598 114.3265"
   version="1.1"
   id="svg1"
   xml:space="preserve"
   sodipodi:docname="CAPITULO ESTUDIANTIL LOGO SVG.svg"
   inkscape:version="1.3 (0e150ed6c4, 2023-07-21)"
   xmlns:inkscape="http://www.inkscape.org/namespaces/inkscape"
   xmlns:sodipodi="http://sodipodi.sourceforge.net/DTD/sodipodi-0.dtd"
   xmlns="http://www.w3.org/2000/svg"
   xmlns:svg="http://www.w3.org/2000/svg"><sodipodi:namedview
     id="namedview1"
     pagecolor="#ffffff"
     bordercolor="#000000"
     borderopacity="0.25"
     inkscape:showpageshadow="2"
     inkscape:pageopacity="0.0"
     inkscape:pagecheckerboard="0"
     inkscape:deskcolor="#d1d1d1"
     inkscape:document-units="mm"
     inkscape:export-bgcolor="#ffffff00"
     inkscape:zoom="2.1694726"
     inkscape:cx="265.96326"
     inkscape:cy="185.52896"
     inkscape:window-width="2560"
     inkscape:window-height="1057"
     inkscape:window-x="-8"
     inkscape:window-y="-8"
     inkscape:window-maximized="1"
     inkscape:current-layer="g30"
     showguides="true" /><defs
     id="defs1"><style
       id="style1-44">&#10;.MsftOfcThm_Background1_Fill_v2 {&#10; fill:#FFFFFF; &#10;}&#10;</style><style
       id="style1-6">&#10;.MsftOfcThm_Background1_Fill_v2 {&#10; fill:#FFFFFF; &#10;}&#10;</style></defs><g
     inkscape:label="Layer 1"
     inkscape:groupmode="layer"
     id="layer1"
     transform="translate(-8.3841078,-36.020484)"><style
   id="style1">&#10;.MsftOfcThm_MainDark1_Stroke_v2 {&#10; stroke:#000000; &#10;}&#10;</style>&#10;<style
   id="style1-4">&#10;.MsftOfcThm_Text1_Fill_v2 {&#10; fill:#000000; &#10;}&#10;</style>&#10;<style
   id="style1-5">&#10;.MsftOfcThm_MainLight1_Fill_v2 {&#10; fill:#FFFFFF; &#10;}&#10;.MsftOfcThm_Accent3_Stroke_v2 {&#10; stroke:#196B24; &#10;}&#10;</style>&#10;<style
   id="style1-52">&#10;.MsftOfcThm_MainLight1_Fill_v2 {&#10; fill:#FFFFFF; &#10;}&#10;.MsftOfcThm_Accent3_Stroke_v2 {&#10; stroke:#196B24; &#10;}&#10;</style>&#10;<style
   id="style1-58">&#10;.MsftOfcThm_MainLight1_Fill_v2 {&#10; fill:#FFFFFF; &#10;}&#10;.MsftOfcThm_Accent3_Stroke_v2 {&#10; stroke:#196B24; &#10;}&#10;</style>&#10;<style
   id="style1-8">&#10;.MsftOfcThm_MainLight1_Fill_v2 {&#10; fill:#FFFFFF; &#10;}&#10;.MsftOfcThm_MainDark1_Stroke_v2 {&#10; stroke:#000000; &#10;}&#10;</style>&#10;<g
   id="g33"
   style="fill:#163a5f;fill-opacity:1;stroke:none;stroke-opacity:1"
   inkscape:export-filename="g33.png"
   inkscape:export-xdpi="144.19144"
   inkscape:export-ydpi="144.19144"
   transform="translate(-48.303561,1.615294)"><path
     id="path29"
     style="fill:#163a5f;fill-opacity:1;stroke:none;stroke-opacity:1"
     d="m 114.74355,34.40519 -0.59686,0.290421 -0.59738,0.290938 -0.31884,0.535885 -0.31885,0.535885 -5.1e-4,0.629419 -10e-4,0.628902 0.35708,0.465604 0.35708,0.465088 1.21337,0.621668 1.21284,0.621151 0.29662,0.268717 0.29714,0.268717 v 0.266651 0.266133 l -0.36897,0.403077 -0.36897,0.402559 h -0.55655 -0.55656 l -0.43201,-0.202055 -0.43253,-0.202055 v -0.235127 -0.235645 l 0.19637,-0.322461 0.19689,-0.322978 -0.10232,-0.272334 -0.10181,-0.272852 -0.31729,-0.17415 -0.31781,-0.174149 -0.41341,0.210323 -0.41341,0.210323 -0.0517,0.718819 -0.0512,0.719336 0.52555,0.613399 0.52555,0.6134 0.71365,0.267167 0.71417,0.267167 0.67127,-0.08888 0.67076,-0.08837 0.56379,-0.357084 0.56328,-0.357085 0.25063,-0.49661 0.25063,-0.496611 v -0.611849 -0.611848 l -0.50695,-0.591696 -0.50746,-0.592212 -1.14773,-0.556038 -1.14774,-0.556038 -0.21187,-0.283704 -0.21239,-0.283187 v -0.227893 -0.227376 l 0.33951,-0.348299 0.33952,-0.347783 h 0.52038 0.52038 l 0.33383,0.183452 0.33435,0.183451 -0.10284,0.561206 -0.10232,0.561723 0.33848,0.314193 0.339,0.314709 0.30386,-0.05994 0.30386,-0.05994 0.25993,-0.478007 0.26045,-0.477491 -0.339,-0.648022 -0.33951,-0.647506 -0.67903,-0.393257 -0.67903,-0.393258 -0.73794,-0.0026 z m -3.7853,0.08682 -2.20606,0.0036 -2.20659,0.0031 -0.63665,0.134875 -0.63614,0.135393 v 0.312125 0.312126 l 0.40308,0.188619 0.40307,0.188102 0.10181,0.927592 0.10232,0.927075 0.0367,1.813843 0.0367,1.813843 -0.37207,0.170532 -0.37259,0.170532 v 0.199471 0.199471 l 0.21239,0.227893 0.21291,0.227894 1.86707,-0.10542 1.86707,-0.104904 0.709,-10e-4 0.70951,-5.17e-4 0.26665,-0.273885 0.26665,-0.273368 V 40.95156 40.214137 l -0.22996,-0.322461 -0.22996,-0.322461 -0.2744,0.108004 -0.27388,0.107487 -0.11317,0.486275 -0.11369,0.485759 -0.14883,0.195337 -0.14935,0.195337 -1.04076,0.120923 -1.04128,0.120922 -0.14159,-0.229443 -0.1416,-0.228927 -0.003,-0.739489 -0.003,-0.73949 h 0.53227 0.53227 l 0.39171,0.433048 0.3917,0.433566 0.27079,-0.106454 0.2713,-0.10697 -0.0496,-1.3255 -0.0491,-1.325501 -0.31936,-0.06253 -0.31988,-0.06253 -0.35915,0.45837 -0.35915,0.45837 -0.50953,0.03772 -0.50901,0.03721 V 36.92855 35.536387 l 0.97048,-0.05219 0.971,-0.05219 0.30334,0.661459 0.30386,0.660941 h 0.33796 0.33797 V 35.62321 Z m 9.11056,0.400492 -0.27285,0.426848 -0.27285,0.426847 -0.0393,0.93276 -0.0398,0.932759 0.28836,0.06098 0.28835,0.06098 0.43512,-0.706934 0.43511,-0.70745 h 0.49713 0.49713 l 0.0879,0.14521 0.0873,0.145728 -0.15193,0.594279 -0.15193,0.594279 -0.27802,1.565796 -0.27853,1.566312 -0.0853,0.478524 -0.0847,0.478524 h -0.48214 -0.48162 l -0.26872,0.105937 -0.2682,0.10542 v 0.308508 0.307991 l 0.46664,0.185002 0.46663,0.185002 0.9338,0.182417 0.93327,0.182418 0.33952,0.0584 0.33951,0.05839 0.29662,-0.149862 0.29714,-0.149861 v -0.269759 -0.270268 l -0.50436,-0.195337 -0.50488,-0.19482 -0.0646,-0.181384 -0.0651,-0.180868 0.40462,-2.001428 0.40463,-2.001428 0.1018,-0.65009 0.10232,-0.650089 0.44493,0.10852 0.44442,0.109037 0.12764,0.07286 0.12713,0.07338 v 0.652673 0.652157 l 0.21652,0.303857 0.21652,0.303858 0.26976,-0.105937 0.26975,-0.105937 0.19275,-0.434082 0.19224,-0.433565 v -0.77773 -0.777731 l -0.55139,-0.241845 -0.55139,-0.242363 -1.95182,-0.364836 -1.95233,-0.365352 -0.45166,-0.103353 z m 7.1267,1.775086 -0.0775,0.217558 -0.0775,0.217557 0.35966,0.404627 0.35967,0.405143 -0.72088,2.144055 -0.72037,2.143539 0.003,0.49661 0.003,0.496611 0.38292,0.692464 0.38241,0.692464 0.67541,0.392224 0.67489,0.392224 0.9679,0.0026 0.9679,0.0031 0.43667,-0.203605 0.43667,-0.204122 0.31522,-0.535885 0.31523,-0.535368 0.64027,-1.827278 0.64079,-1.827279 0.16381,-0.217558 0.16433,-0.217558 h 0.40876 0.40876 l 0.10284,-0.274402 0.10284,-0.274401 -0.23565,-0.22531 -0.23513,-0.225309 -0.83664,-0.283187 -0.83612,-0.283703 h -0.47904 -0.47904 v 0.33848 0.337964 l 0.35811,0.257349 0.3576,0.256832 -0.4687,1.449524 -0.46922,1.449524 -0.29352,0.706933 -0.29353,0.706934 -0.28628,0.293522 -0.28629,0.294039 h -0.50591 -0.5054 l -0.47697,-0.253215 -0.47646,-0.252698 -0.20154,-0.497644 -0.20102,-0.49816 0.74104,-2.164209 0.74104,-2.163693 0.60978,-0.05323 0.60978,-0.05323 0.0837,-0.223759 0.0837,-0.223759 -0.12919,-0.21394 -0.12868,-0.213941 -1.13636,-0.422713 -1.13585,-0.422713 h -0.40256 z m -32.1784,0.181384 -0.68523,0.108004 -0.685746,0.107487 -0.605648,0.311092 -0.605648,0.310575 -0.613399,0.696599 -0.613399,0.696598 -0.180351,0.664559 -0.179834,0.665075 -10e-4,0.501779 -0.001,0.501778 0.199471,0.683162 0.199471,0.683163 0.641821,0.747241 0.641822,0.747241 0.559139,0.28267 0.558622,0.282153 1.067635,0.0041 1.067636,0.0041 0.6413,-0.33538 0.64131,-0.33538 0.61546,-0.699182 0.61599,-0.698666 0.1974,-0.749308 0.19689,-0.749308 -0.0971,-0.84491 -0.0972,-0.844393 -0.41961,-0.733805 -0.41962,-0.733806 -0.64698,-0.452168 -0.64751,-0.451652 -0.67231,-0.184485 z m -1.291394,1.210779 h 0.792716 0.79272 l 0.58601,0.45837 0.58601,0.45837 0.31729,0.716235 0.3173,0.716235 0.004,0.930176 0.004,0.930176 -0.28939,0.502812 -0.28939,0.502295 -0.5426,0.264066 -0.54312,0.26355 -0.568443,-5.17e-4 -0.568441,-5.16e-4 -0.54467,-0.340548 -0.544669,-0.340548 -0.382923,-0.746724 -0.382405,-0.746208 -0.0062,-1.188041 -0.0062,-1.188041 0.63407,-0.59583 z m 42.092524,1.531173 -0.25219,0.0987 -0.25166,0.09922 v 0.326595 0.326595 l 0.33228,0.307992 0.33176,0.307991 -0.9586,1.850534 -0.95859,1.850533 -0.28319,0.522448 -0.2837,0.521932 -0.62012,-0.05116 -0.6196,-0.05168 -0.1018,0.271301 -0.10129,0.270785 0.20877,0.257865 0.20826,0.257866 0.93638,0.548803 0.93586,0.549321 1.12344,0.501261 1.12293,0.500745 0.88367,-0.06201 0.88367,-0.06201 0.80925,-0.513146 0.80925,-0.513147 0.49609,-0.822689 0.49662,-0.823206 0.0811,-0.872298 0.0817,-0.872298 -0.27802,-0.745691 -0.27802,-0.746208 -0.63511,-0.626318 -0.6351,-0.625802 -1.74253,-0.99167 z m -49.385619,0.730704 -0.296623,0.0083 -0.29714,0.0078 -1.27279,0.644922 -1.273307,0.644405 v 0.348299 0.347783 l 0.594279,0.05529 0.593762,0.05529 1.060917,2.264461 1.060917,2.264978 v 0.315227 0.315226 l -0.254765,0.100252 -0.254248,0.09974 v 0.324528 0.324528 l 0.113172,0.116272 0.113171,0.115755 h 0.146761 0.146761 l 2.455664,-1.220597 2.456181,-1.220598 -0.0031,-0.47594 -0.0031,-0.47594 -0.383439,-0.696081 -0.383956,-0.696082 -0.377238,-0.05581 -0.377238,-0.05581 -0.01499,0.22996 -0.01499,0.229444 0.02274,0.782898 0.02325,0.783414 -0.839226,0.478524 -0.839225,0.478524 h -0.10697 -0.106454 l -1.209745,-2.526978 -1.210262,-2.526977 0.365869,-0.398942 0.365353,-0.399459 v -0.293006 z m 50.776229,1.566313 h 0.30076 0.30024 l 0.5767,0.395325 0.57671,0.394808 0.29714,0.605647 0.29663,0.605648 5.1e-4,0.59738 v 0.597896 l -0.35657,0.75551 -0.35708,0.756026 -0.54002,0.422196 -0.54002,0.422197 -0.67282,0.103352 -0.67335,0.103353 -0.73639,-0.382405 -0.73639,-0.381889 -0.0734,-0.19482 -0.0729,-0.19482 1.20458,-2.302702 z m -55.68084,0.696082 -0.773079,0.534851 -0.772563,0.534851 -0.165881,0.317293 -0.165365,0.316776 0.235128,0.199472 0.234611,0.199987 0.416512,-0.10697 0.417029,-0.107487 1.211812,1.864486 1.211813,1.863969 -0.0036,0.541569 -0.0041,0.541052 -0.293522,0.371037 -0.293005,0.371037 -0.371037,0.19482 -0.37052,0.194303 H 81.714614 81.386986 L 80.916214,50.035764 80.445958,49.655942 79.45067,48.102549 78.455899,46.548638 V 46.27682 46.005002 L 78.730817,45.692877 79.006253,45.381268 78.906,45.113584 78.805748,44.846417 h -0.261999 -0.262 l -1.193726,0.813904 -1.193725,0.813903 0.05013,0.360702 0.05013,0.360701 h 0.571541 0.571025 l 1.223181,1.827279 1.222665,1.827279 0.564823,0.39119 0.564823,0.391708 0.696599,-0.0016 0.696081,-0.0021 0.872815,-0.513664 0.873332,-0.513146 0.357084,-0.593246 0.357601,-0.593245 V 48.724134 48.03167 L 83.64112,46.520651 82.715595,45.009632 82.368329,44.55643 82.020547,44.103228 v -0.314193 -0.314193 l 0.169499,-0.108004 0.170015,-0.107487 v -0.337447 -0.337963 h -0.415995 z m 62.00087,1.740462 -0.19689,0.202055 -0.19741,0.202054 0.28216,0.489376 0.28215,0.489893 -1.43402,2.171444 -1.43454,2.17196 -0.22427,0.09405 -0.2248,0.09457 -0.33072,-0.181901 -0.33022,-0.181384 -0.1664,0.10542 -0.16639,0.105419 v 0.329179 0.328662 l 1.08262,0.7922 1.0821,0.791683 h 0.20309 0.18655 l 0.40618,-0.523482 -0.0227,-0.0078 -0.21807,-0.418062 -0.21808,-0.417546 1.37666,-1.990059 1.37666,-1.989543 0.24702,-0.210323 0.24701,-0.209806 0.31729,0.173633 0.31678,0.174149 0.21962,-0.139526 0.21963,-0.13901 -0.0589,-0.315226 -0.0594,-0.315743 -1.10277,-0.825789 -1.1033,-0.82579 -0.17828,-0.0124 z m -32.12983,1.885156 -0.23357,0.05788 -0.2341,0.05788 -0.80357,0.932243 -0.80408,0.932243 -0.17053,0.45992 -0.17054,0.45992 0.18759,2.523361 0.18707,2.52336 0.15916,2.000911 0.15916,2.001428 0.0853,1.47898 0.0858,1.479496 0.26562,4.00234 0.26562,4.00234 0.34468,4.263305 0.34468,4.263306 0.0677,0.217558 0.0672,0.217557 h 0.23358 0.23306 l 0.11162,-3.160013 0.11162,-3.160531 V 59.196441 46.62925 l -0.24649,-0.209807 z m 6.84041,0.550871 -0.99012,0.904854 -0.99012,0.904854 -0.21497,0.530717 -0.21498,0.530717 -0.43304,4.350639 -0.43305,4.350639 -0.26975,3.045292 -0.26976,3.045292 -0.23874,2.175061 -0.23926,2.175061 -0.10542,1.131198 -0.10594,1.131197 -0.24236,1.966805 -0.24236,1.966288 v 0.832507 0.831991 l 0.11317,0.116272 0.11317,0.115755 h 0.22324 0.22324 l 0.0796,-0.391707 0.0801,-0.391191 0.33952,-1.740462 0.33951,-1.739946 0.25632,-1.479496 0.25631,-1.478979 0.3576,-2.262395 0.35761,-2.261877 0.22996,-1.131197 0.22996,-1.131197 0.28112,-1.653129 0.28111,-1.653129 0.33228,-1.827279 0.33177,-1.827279 0.23823,-1.30483 0.23771,-1.305346 0.53847,-2.999817 0.53846,-2.999817 -0.0982,-0.263033 -0.0987,-0.263033 h -0.39584 z m -14.60479,0.348299 -0.33951,0.391191 -0.34004,0.391707 -0.53846,0.856278 -0.53847,0.856279 v 0.403076 0.403076 l 0.4377,1.699121 0.43821,1.698605 0.40825,1.653129 0.40824,1.653129 0.32505,1.21853 0.32504,1.218014 0.45114,1.637109 0.45165,1.637626 0.14107,0.711585 0.14108,0.712101 0.59738,2.34921 0.59686,2.349211 0.37311,1.392163 0.37258,1.392163 0.22841,1.090373 0.2279,1.090889 0.10438,0.1726 0.10439,0.173116 0.41548,1.758549 0.41496,1.758549 0.093,0.153995 0.0925,0.153479 h 0.23461 0.23461 l 0.0858,-0.142627 0.0863,-0.14211 -0.23358,-1.728576 -0.23357,-1.72806 -0.2558,-1.30483 -0.2558,-1.305347 -0.43822,-2.696993 -0.43821,-2.69751 -0.25218,-1.305346 -0.25218,-1.30483 -0.78704,-4.872571 -0.78703,-4.872571 -0.0724,-0.521932 -0.0729,-0.521932 -0.31212,-1.740462 -0.31213,-1.739945 -0.10749,-0.696082 -0.10748,-0.696082 -0.18345,-0.478523 -0.18346,-0.478524 h -0.37413 z m -29.071092,0.521932 -2.085144,1.933732 -2.084628,1.934249 -0.156579,0.334863 -0.156063,0.334863 0.743107,0.776697 0.743107,0.77618 h 0.20929 0.209289 l 0.116272,-0.192753 0.115755,-0.192236 -0.218074,-0.677995 -0.218075,-0.677478 0.198955,-0.447518 0.198437,-0.447001 0.235645,0.05581 0.235644,0.05581 1.714624,1.891874 1.714107,1.891874 v 0.218592 0.218591 l -0.254248,0.216524 -0.254764,0.216525 v 0.297656 0.298173 l 0.113171,0.115755 0.113171,0.116272 h 0.264584 0.2651 l 1.23455,-1.257288 1.234033,-1.257287 V 53.95335 53.741994 l -0.183968,-0.116789 -0.183968,-0.116789 -0.579293,0.319877 -0.578776,0.319361 -0.326078,-0.343648 -0.326079,-0.343649 -1.456758,-1.647961 -1.456759,-1.647962 v -0.212907 -0.212906 l 0.359151,-0.257866 0.358635,-0.257865 0.277502,0.103869 0.278019,0.103353 0.399976,0.31471 0.399976,0.314192 0.321427,-0.176216 0.320911,-0.176217 v -0.205672 -0.205155 l -0.799435,-0.832508 -0.799951,-0.832507 h -0.128158 z m 50.924542,0.869714 -0.98496,0.593246 -0.98495,0.593245 -0.39274,0.430465 -0.39222,0.430465 -0.51005,1.717207 -0.50953,1.717208 -0.34572,1.305347 -0.34623,1.30483 -0.4811,1.827278 -0.48111,1.827279 -0.61754,2.175061 -0.61805,2.175061 -0.39635,1.479496 -0.39636,1.47898 -0.33797,1.044381 -0.33848,1.043864 -0.60513,2.262394 -0.60513,2.262394 -0.2589,1.037146 -0.25941,1.037146 v 0.410828 0.411344 l 0.27853,-0.05633 0.27906,-0.05633 0.13797,-0.260966 0.13746,-0.260966 0.78342,-2.175061 0.78341,-2.175061 0.59635,-1.653646 0.59583,-1.653129 0.47439,-1.392163 0.47438,-1.392163 0.62271,-1.739945 0.6227,-1.739946 0.2589,-0.696081 0.25941,-0.696082 0.22531,-0.696081 0.22531,-0.696082 1.61282,-4.350639 1.61282,-4.350639 0.37827,-0.997871 0.37879,-0.998389 -0.2129,-0.26355 -0.21343,-0.26355 h -0.22479 z m -28.868008,0.696082 -0.68058,1.388546 -0.68109,1.388029 v 0.213423 0.212907 l 1.54926,3.40186 1.54874,3.401342 0.39016,0.870232 0.39067,0.870231 1.132228,2.610176 1.13275,2.610177 0.97927,2.175578 0.97978,2.175061 0.88315,2.062406 0.88367,2.062406 0.99477,2.157492 0.99425,2.157491 h 0.24753 0.24753 l 0.0956,-0.255282 0.0956,-0.255282 -0.51934,-1.441255 -0.51935,-1.441773 -0.81029,-2.34921 -0.80977,-2.349211 -0.61495,-1.605587 -0.61495,-1.606103 v -0.09043 -0.08992 l -0.86868,-2.393652 -0.8692,-2.393136 -0.9002,-2.610176 -0.9002,-2.610177 -0.841288,-2.436544 -0.8413,-2.436027 -0.43046,-1.270207 -0.43047,-1.26969 -0.27285,-0.426847 -0.27233,-0.426847 h -0.33383 z m 52.773008,0.148828 -2.99465,1.408699 -2.99465,1.4087 -0.53899,-0.182418 -0.17983,-0.06098 -0.49403,0.63717 0.76171,0.744658 0.99426,0.972034 0.30851,-0.06253 0.30902,-0.06253 V 53.575078 53.00147 l 0.27595,-0.158647 0.27596,-0.159164 0.65732,0.495577 0.65784,0.495061 0.39584,0.441316 0.39584,0.441834 -0.0563,0.408244 -0.0568,0.40876 -0.44338,-0.04651 -0.4439,-0.04651 -0.22428,0.277502 -0.22427,0.276986 1.28312,1.335319 0.6165,0.641821 0.82321,-0.736389 -0.11421,-0.109554 v -0.396358 -0.395842 l 0.8568,-2.749703 0.85628,-2.749186 0.0346,-0.609265 0.0346,-0.608748 -0.38602,-0.05633 z m -1.33997,1.939416 h 0.0987 0.0992 l -0.11886,0.649573 -0.11885,0.649573 -0.16072,0.307475 -0.16071,0.307991 -0.12144,-0.0057 -0.12092,-0.0057 -0.46716,-0.357084 -0.46664,-0.357084 v -0.211356 -0.211874 l 0.76843,-0.382922 z m -80.64004,0.12299 -0.419096,0.195854 -0.419096,0.195854 v 0.532784 0.532784 l 0.348299,0.700215 0.348299,0.700216 0.287838,-0.05633 0.288355,-0.05633 0.04961,-1.145666 0.04961,-1.14515 -0.26665,-0.227376 z m 64.86477,0.243396 -1.18597,0.398426 -1.18649,0.398425 -0.39378,0.264583 -0.39377,0.264584 -1.08572,2.416906 -1.08572,2.41639 -2.02417,4.350639 -2.02417,4.350639 -1.0697,2.175061 -1.07022,2.175061 -0.27543,0.522449 -0.27544,0.521932 -0.66456,1.496032 -0.66456,1.496033 -0.69246,1.437639 -0.69298,1.438155 v 0.299723 0.30024 l 0.11317,0.115755 0.11317,0.116272 h 0.13746 0.13694 l 0.28371,-0.565857 0.2837,-0.56534 1.14463,-1.933732 1.14412,-1.934249 0.11007,-0.3545 0.10956,-0.354501 0.63717,-1.018025 0.63717,-1.018026 1.50275,-2.696993 1.50275,-2.69751 1.27072,-2.261877 1.27072,-2.262394 0.93431,-1.653129 0.9338,-1.65313 1.5043,-2.52336 1.5043,-2.52336 5.2e-4,-0.373104 5.1e-4,-0.372587 -0.24494,-0.09663 z m -41.919918,0.482658 -0.259415,0.406177 -0.259416,0.406177 -0.259932,1.265039 -0.259416,1.265039 0.251664,0.618567 0.252181,0.61805 2.590023,3.819922 2.590539,3.819922 0.679032,1.091923 0.67851,1.092439 2.04793,3.03289 2.047428,3.032373 2.11098,3.200838 2.11046,3.201355 0.46199,0.510047 0.46199,0.510046 0.17466,-0.110587 0.17415,-0.110588 v -0.284737 -0.284737 l -1.89652,-3.402893 -1.89704,-3.402893 -1.47071,-2.52336 -1.470198,-2.523361 -1.57406,-2.784326 -1.57355,-2.783809 -1.576648,-2.87166 -1.576648,-2.871142 -1.008207,-1.914095 -1.007691,-1.914095 -0.270784,-0.05426 z m 62.903658,1.065051 0.10645,0.681096 0.10594,0.681095 -1.90893,1.580266 -1.90893,1.579748 -0.24391,0.0015 -0.2434,10e-4 -0.13642,-0.131258 -0.84491,0.754992 0.15296,0.159164 0.76533,0.829407 0.76481,0.82889 0.28577,-0.112655 0.28577,-0.112138 -0.0982,-0.629936 -0.0982,-0.629419 1.54667,-1.27279 1.54616,-1.272791 0.0744,0.07596 0.0744,0.07596 -0.77049,2.842721 -0.7705,2.84272 v 0.485759 l -5.2e-4,0.485758 h 0.39791 0.39791 l 0.94361,-0.826306 0.94361,-0.826823 1.23094,-1.000456 1.23093,-1.000455 h 0.27905 0.27854 l 0.19223,0.196887 0.19276,0.197404 0.26561,-0.104903 0.26614,-0.104904 -0.001,-0.309541 -5.1e-4,-0.310059 -0.77618,-1.000973 -0.77618,-1.000455 h -0.33125 -0.33073 l -0.0925,0.24753 -0.0925,0.24753 0.19637,0.376204 0.19637,0.375688 -0.29352,0.332796 -0.29301,0.33228 -0.9126,0.72192 -0.91261,0.721403 -0.10232,-0.104387 -0.10232,-0.104903 0.62632,-2.475818 0.6258,-2.475818 -0.0956,-0.389123 -0.0951,-0.388607 -0.43925,-0.535368 -0.44029,-0.535885 h -0.43098 z m -84.451696,5.17e-4 -0.947746,1.106909 -0.947746,1.10691 v 0.290421 0.290938 l 0.265617,0.104387 0.266134,0.104903 0.405143,-0.222209 0.405143,-0.222725 0.38964,0.264583 0.389641,0.264584 1.583366,1.443322 1.583882,1.442806 -0.10697,0.582911 -0.106453,0.58291 0.102836,0.171049 0.103353,0.171049 h 0.21239 0.211873 l 0.257349,-0.217558 0.257348,-0.217558 0.79375,-0.976168 0.793234,-0.975651 v -0.17725 -0.177767 l -0.247014,-0.209806 -0.246496,-0.209806 -0.505913,0.306441 -0.505912,0.306441 -0.90227,-0.793233 -0.902271,-0.792717 -1.086239,-1.027327 -1.086755,-1.027328 0.208773,-0.399458 0.208256,-0.399459 -0.0925,-0.24753 -0.0925,-0.247014 h -0.330729 z m 66.870336,3.045292 -0.42633,0.410828 -0.42581,0.410828 -1.72083,2.547648 -1.72031,2.547131 -1.38854,1.960604 -1.38855,1.960087 -1.39165,1.954919 -1.39216,1.955437 -1.06918,1.494482 -1.06867,1.494483 -1.52756,2.124418 -1.52755,2.124935 -0.89142,1.338419 -0.8909,1.33842 v 0.219108 0.219625 h 0.24494 0.24547 l 0.7307,-0.899687 0.7307,-0.899687 0.77722,-0.884183 0.77773,-0.883667 1.05368,-1.392164 1.05368,-1.392163 1.53273,-1.827278 1.53272,-1.827279 0.62477,-0.779797 0.62477,-0.779281 3.75377,-4.615222 3.75378,-4.614705 1.13378,-1.292428 1.13378,-1.292428 -0.0506,-0.360701 -0.0501,-0.360702 h -1.38699 z m -51.237182,0.100253 -0.311609,0.233577 -0.312126,0.234094 -0.07183,1.683102 -0.07183,1.683101 3.630269,3.77548 3.63027,3.77548 6.42183,6.743258 6.421308,6.743258 h 0.23771 0.2372 v -0.396879 -0.396875 l -2.41846,-2.970362 -2.418968,-2.970361 -2.29133,-2.760038 -2.291337,-2.760038 -0.763778,-0.98392 -0.763777,-0.983919 -2.291333,-2.747636 -2.291333,-2.747636 -1.834514,-2.409155 -1.834513,-2.408639 -0.305925,-0.167948 z m -18.22111,1.204577 -0.629936,0.331246 -0.629935,0.331246 -0.353467,0.408244 -0.353467,0.408761 -0.7922,1.182873 -0.792199,1.182874 v 0.426847 0.426331 h 0.318843 0.318844 l 0.217558,-0.268718 0.217557,-0.268717 0.19327,0.07545 0.192753,0.07597 1.978174,1.4149 1.978691,1.414384 0.104903,0.173633 0.104386,0.17415 -0.35295,0.58601 -0.353467,0.586011 -0.295072,0.07028 -0.295072,0.0708 -3.309359,-0.14211 -3.308842,-0.141594 -0.206189,0.289388 -0.206189,0.288871 0.150895,0.280603 0.150379,0.280604 1.890323,2.261877 1.890324,2.262394 0.147278,0.348299 0.146761,0.347783 0.102836,0.489892 0.102836,0.489893 0.375688,-0.05478 0.375688,-0.05478 0.46147,-0.957048 0.461471,-0.957047 0.0052,-0.373104 0.0057,-0.373104 -0.279053,-0.109554 -0.279569,-0.110071 -0.311609,0.289388 -0.311609,0.289388 -0.257866,-0.219625 -0.257865,-0.219108 0.01085,-0.283186 0.01085,-0.283187 0.541052,-1.044381 0.540536,-1.043864 0.466638,-0.05529 0.467155,-0.05478 0.0026,0.315743 0.0026,0.31626 0.145727,0.236161 0.145728,0.236162 0.330729,-0.107487 0.330212,-0.107487 0.489893,-1.085722 0.489892,-1.085722 0.283704,-0.348299 0.28422,-0.347783 0.783932,-1.185974 0.783931,-1.185457 v -0.342615 -0.342098 l -0.265616,-0.104903 -0.266134,-0.104386 -0.469222,0.576192 -0.469222,0.576192 -0.625802,-0.489376 -0.625285,-0.488859 0.40411,-0.716752 0.404627,-0.716752 0.206189,-0.653707 0.206189,-0.653707 -0.296106,-0.7953 -0.296106,-0.794784 -0.605648,-0.421679 -0.605648,-0.422197 H 66.78325 Z m 0.04806,1.364775 0.507463,0.215491 0.507462,0.21549 0.267684,0.575159 0.267167,0.575159 -0.309025,0.702282 -0.308508,0.702283 H 66.93097 66.659668 l -0.9741,-0.708484 -0.974101,-0.708484 0.255798,-0.506945 0.255282,-0.506429 0.523999,-0.277503 z m 92.721472,1.753898 -0.81804,0.532784 -0.81804,0.532784 0.0584,0.300757 0.0584,0.300757 h 0.88005 0.87953 l 0.28526,0.290938 0.28473,0.290938 -0.0951,0.253732 -0.0956,0.253731 -2.11253,1.239201 -2.11254,1.238684 h -0.14004 -0.14004 l -0.46251,-0.454236 -0.4625,-0.453719 -0.18345,0.116272 -0.18345,0.116272 v 0.35295 0.35295 l 0.62166,1.159619 0.62115,1.159102 0.25942,0.311093 0.25942,0.311092 0.2651,-0.05426 0.26458,-0.05478 v -0.776696 -0.777214 l 2.1208,-1.267623 2.1208,-1.268139 0.2558,0.04961 0.25528,0.04961 0.0527,0.556039 0.0522,0.556038 -0.43408,0.387573 -0.4346,0.387574 v 0.208256 0.208256 l 0.26459,0.224792 0.26406,0.225309 0.74621,-0.371553 0.74621,-0.371554 0.27853,-0.436666 0.27906,-0.436665 -1.43609,-2.57142 -1.43661,-2.571419 -0.40462,-0.05013 z m -17.92862,0.361735 -0.37104,0.201021 -0.37052,0.200505 -6.1991,6.194454 -6.19963,6.194454 -3.85713,3.801318 -3.85661,3.801835 v 0.24443 0.244429 h 0.25477 0.25476 l 1.73943,-1.480529 1.73943,-1.480013 1.81591,-1.608688 1.81591,-1.608687 1.64848,-1.392163 1.64848,-1.392163 1.37252,-1.229899 1.37304,-1.2299 4.66742,-4.044197 4.66793,-4.044198 0.2465,-0.359668 0.24701,-0.359668 -0.39274,-0.326078 -0.39326,-0.326595 h -0.92604 z m -61.580738,0.820622 -0.277503,0.236161 -0.278019,0.236161 0.07131,1.521355 0.0708,1.521354 0.328662,0.372587 0.328662,0.37207 2.292884,1.618506 2.292366,1.617989 1.224215,0.931726 1.224214,0.931726 1.536341,1.106393 1.535823,1.106392 1.773536,1.329635 1.773535,1.330151 1.899624,1.392163 1.89911,1.392159 1.37459,1.036113 1.37408,1.036112 1.175638,0.834574 1.17615,0.834575 h 0.30903 0.30954 v -0.233578 -0.233577 l -1.06712,-1.027844 -1.06712,-1.028361 -2.539888,-2.192631 -2.53938,-2.192631 -1.540478,-1.287777 -1.540991,-1.287777 -2.108398,-1.784904 -2.108399,-1.78542 -1.336869,-1.173055 -1.336353,-1.173055 -2.794144,-2.523361 -2.794145,-2.52336 -0.320911,-0.155029 z m 65.233738,5.09633 -0.82475,0.536401 -0.82527,0.535884 -1.20252,0.911056 -1.20251,0.910539 -3.64939,2.517159 -3.64887,2.516642 -0.50901,0.360185 -0.50953,0.360184 -5.09168,3.446819 -5.09168,3.447334 -0.46715,0.440284 -0.46664,0.440283 v 0.141076 0.141594 h 0.2589 0.2589 l 1.14153,-0.601514 1.14153,-0.600997 1.52756,-0.950846 1.52703,-0.95033 2.97037,-1.775085 2.97036,-1.775086 2.48925,-1.502234 2.48977,-1.501717 1.41439,-0.85111 1.41386,-0.851628 1.69757,-0.993738 1.69706,-0.994254 1.52755,-0.852145 1.52756,-0.851627 v -0.522449 -0.521932 l -0.59376,-0.304374 -0.59428,-0.303858 -0.68782,-5.16e-4 z m -82.384113,0.696081 h 0.923458 0.923458 l 0.09767,0.161747 0.09767,0.162264 -0.288871,0.621151 -0.288872,0.620634 -0.180867,-0.0031 -0.180868,-0.0031 -0.551387,-0.681096 -0.551388,-0.681095 v -0.0987 z m 100.393353,0.08682 -0.0522,0.63407 -0.0517,0.634587 -2.23966,0.978235 -2.24017,0.978751 -0.29094,-0.0031 -0.29094,-0.0031 -0.1819,-0.348299 -0.18138,-0.347782 h -0.32195 -0.32194 l -0.0992,0.321427 -0.0992,0.321944 0.5271,1.287777 0.5271,1.288293 0.25683,0.205156 0.25632,0.205672 0.23771,-0.09353 0.23823,-0.09354 0.0191,-0.198954 0.0186,-0.198954 -0.03,-0.381372 -0.03,-0.381372 0.51004,-0.270268 0.51057,-0.270785 1.89549,-0.795817 1.89601,-0.796333 0.39687,0.382405 0.39688,0.382406 0.26303,-0.10387 0.26303,-0.103353 -0.009,-0.484208 -0.009,-0.483691 -0.5426,-1.131197 -0.5426,-1.131198 h -0.33952 z m -87.674749,0.260966 -0.108004,0.288355 -0.108004,0.288354 0.211874,1.051099 0.211873,1.050582 0.309025,0.618567 0.309542,0.618567 2.859257,1.37976 2.859774,1.380278 4.582666,2.285649 4.582666,2.286165 3.135726,1.554427 3.136246,1.554944 1.95543,0.989604 1.955958,0.99012 0.46715,0.01033 0.46664,0.01085 v -0.234094 -0.234094 l -0.29714,-0.268201 -0.29714,-0.268201 -2.715598,-1.588533 -2.71559,-1.58905 -1.401985,-0.823723 -1.401982,-0.823722 -0.9741,-0.586527 -0.974101,-0.587045 -3.055111,-1.781286 -3.055111,-1.781287 -3.081982,-1.844849 -3.081982,-1.844332 -1.561662,-1.051098 -1.561662,-1.051616 h -0.326595 z m -14.61978,3.613217 -0.838192,0.08268 -0.838708,0.08268 -0.617533,0.51263 -0.618051,0.512631 -0.339514,0.671276 -0.339514,0.671277 -0.07596,0.933793 -0.07545,0.933794 0.277503,0.744657 0.277502,0.744657 0.660942,0.661975 0.661458,0.661976 0.907438,0.324528 0.906922,0.324528 0.652156,-0.08733 0.652157,-0.08682 0.628385,-0.329179 0.628902,-0.328662 0.689364,-0.766878 0.68988,-0.766879 0.205672,-0.880049 0.205673,-0.88005 -0.188619,-0.719336 -0.189136,-0.718819 -0.51263,-0.59893 -0.512114,-0.598413 -0.337447,-0.109554 -0.33693,-0.109554 -0.246497,0.209806 -0.246496,0.20929 v 0.12454 0.124024 l 0.622184,0.819071 0.622701,0.819071 v 0.732772 0.732772 l -0.208773,0.400492 -0.209289,0.399976 -0.540536,0.337964 -0.541052,0.337964 -0.933276,-0.0021 -0.933277,-0.0021 -0.673861,-0.391708 -0.674377,-0.39119 -0.38654,-0.588595 -0.387056,-0.588594 v -0.589112 -0.588594 l 0.22841,-0.560173 0.22841,-0.559656 0.285253,-0.242879 0.285254,-0.242362 0.559139,0.309025 0.559139,0.308508 0.358635,-0.19637 0.358117,-0.196888 0.110588,-0.356567 0.110071,-0.357084 -0.285254,-0.447001 z m 104.203459,0.529166 -0.14521,0.234611 -0.14521,0.234611 -0.003,0.371037 -0.003,0.371037 -1.48519,0.474389 -1.48518,0.474907 -0.75137,0.241846 -0.75189,0.241845 h -0.30128 -0.30179 l -0.45423,-0.466121 -0.45476,-0.466122 -0.21394,0.300241 -0.21394,0.299723 0.42013,1.514636 0.42013,1.515153 0.1416,0.521932 0.14159,0.521932 0.17673,0.582393 0.17674,0.582394 0.19792,0.244429 0.19843,0.243913 0.19121,-0.01344 0.1912,-0.01344 0.84853,-0.305924 0.84904,-0.305925 v -0.420129 -0.420129 l -0.50953,-0.04754 -0.50901,-0.04806 -0.35915,-0.0801 -0.35915,-0.0801 -0.20878,-0.764811 -0.20877,-0.764811 0.0589,-0.308508 0.0584,-0.308509 1.95233,-0.598413 1.95182,-0.59893 0.55087,-0.139526 0.55087,-0.13901 0.21446,0.459921 0.21446,0.45992 0.38085,0.05581 0.38137,0.05581 0.0982,-0.262516 0.0982,-0.262 -0.4811,-1.533756 -0.48059,-1.533757 -0.31937,-0.06046 z m -16.59641,0.904338 -1.65157,0.846977 -1.65158,0.847493 -1.27331,0.56224 -1.27279,0.562756 -1.35806,0.612882 -1.35754,0.612366 -1.10329,0.520899 -1.10329,0.520381 -2.46083,1.095024 -2.46135,1.095024 -2.12132,0.949812 -2.12183,0.949813 -2.20659,1.002006 -2.20606,1.001489 -0.76378,0.444935 -0.76378,0.444934 -0.0641,0.04857 -0.0636,0.04858 0.10749,0.286288 0.10697,0.286804 0.29559,-0.126607 0.29559,-0.126608 0.50953,-0.181384 0.50901,-0.181901 1.52755,-0.569474 1.52756,-0.569474 2.33526,-0.880567 2.33577,-0.880566 h 0.0842 0.0842 l 1.48414,-0.596863 1.48363,-0.596863 3.05512,-1.155485 3.05511,-1.154968 2.63084,-1.02216 2.63085,-1.021643 1.35186,-0.481108 1.35185,-0.481107 0.4594,-0.442867 0.45941,-0.442867 0.11007,-0.392741 0.11007,-0.392741 -0.50798,-0.520898 -0.50798,-0.520382 h -0.44028 z m -75.720436,1.545642 -0.452685,0.05374 -0.452686,0.05374 -0.05219,0.375171 -0.05219,0.375687 0.329179,0.320394 0.329178,0.320911 0.530717,1.085722 0.531234,1.086238 0.634587,0.275953 0.635103,0.276469 1.86707,0.505395 1.867069,0.504879 1.866553,0.526583 1.867069,0.527099 0.848527,0.243396 0.849044,0.242879 2.036568,0.621668 2.036568,0.621151 3.055111,0.892452 3.055111,0.892452 1.358056,0.420129 1.357545,0.420646 1.69757,0.508496 1.69705,0.508496 0.636648,0.0098 0.63666,0.0098 v -0.329178 -0.329179 l -0.72141,-0.297657 -0.721398,-0.297656 -2.12183,-0.785998 -2.12132,-0.786516 -2.291333,-0.842326 -2.291333,-0.841809 -1.86707,-0.711067 -1.867069,-0.711585 -2.154391,-0.768428 -2.153874,-0.768429 -3.956347,-1.558044 -3.955831,-1.558562 -1.244369,-0.546219 z m -1.820044,1.390613 -0.1757,0.670243 -0.176216,0.669727 -0.346232,1.427819 -0.346749,1.42782 -0.237195,1.610755 -0.237195,1.611271 -0.199988,1.172021 -0.200504,1.172022 0.08217,4.396626 0.08217,4.39663 0.432015,2.36213 0.432015,2.36213 0.528133,2.188496 0.52865,2.18901 0.759127,2.05259 0.759643,2.05207 1.203028,2.35852 1.203027,2.35903 0.920874,1.44952 0.920874,1.45004 1.525488,2.07067 1.524972,2.07068 1.051615,1.15238 1.051615,1.15239 1.753899,1.55287 1.754414,1.55288 1.562179,1.18132 1.561662,1.18184 0.991154,0.64854 0.990637,0.64854 2.064473,1.09916 2.063957,1.09864 1.77819,0.81907 1.77818,0.81907 1.87069,0.57826 1.871198,0.57826 2.03657,0.35709 2.03709,0.35708 2.12131,0.18862 2.12184,0.18914 1.01802,0.0496 1.01855,0.0506 1.29346,0.0331 1.29346,0.0331 2.52543,-0.26665 2.52542,-0.26665 1.69757,-0.3607 1.69706,-0.3607 2.46135,-0.75603 2.46083,-0.75602 1.01182,-0.36019 1.01131,-0.36018 1.14205,-0.5395 1.14205,-0.54002 0.0982,-0.262 0.0982,-0.262 -0.19327,-0.23926 -0.19379,-0.23875 h -2.41949 -2.41949 l -1.08159,-1.17925 -1.08158,-1.17874 -0.7829,-0.95292 -0.7829,-0.95291 -0.19327,-0.37982 -0.19275,-0.38034 v -6.3283 -6.32829 l 0.2036,-0.20878 0.20412,-0.20877 h 0.98444 0.98444 l 0.33899,0.3483 0.33952,0.34778 v 5.56245 5.56246 l 1.17874,1.34358 1.17874,1.34359 0.39119,0.22221 0.39119,0.22272 1.16375,0.006 1.16375,0.006 1.27125,-1.26194 1.27124,-1.26142 0.23822,-0.47026 0.23823,-0.46973 v -3.21635 -3.21685 l -0.15141,-0.40308 -0.15089,-0.40256 -1.048,-1.21801 -1.04748,-1.21853 -0.34779,-0.16588 -0.3483,-0.16589 -0.23512,0.3297 -0.23513,0.3297 v 3.78891 3.78943 l -0.32815,0.17984 -0.32814,0.18035 h -0.91106 -0.91054 l -0.2036,-0.20877 -0.20361,-0.20878 -0.016,-4.62039 -0.016,-4.62039 -0.11162,-1.58078 -0.1111,-1.58078 -1.78232,-2.03347 -1.7818,-2.03347 -0.63666,-0.79478 -0.63665,-0.79427 v -5.353666 -5.35368 l 0.19585,-0.5917 0.19586,-0.59118 0.32556,-0.47955 0.32556,-0.47956 -0.0558,-0.30386 -0.0563,-0.30334 -0.67748,-0.0512 -0.67748,-0.0512 -0.29558,0.22479 -0.29559,0.22531 -0.16847,1.65313 -0.16795,1.65365 -0.25631,1.35754 -0.25632,1.35806 -0.17725,0.33899 -0.17673,0.33848 h -0.33848 -0.339 l -0.0946,0.25218 -0.094,0.25167 0.30593,0.53123 0.30592,0.53072 -0.28784,0.29507 -0.28732,0.29456 -0.39636,-0.38137 -0.39635,-0.38189 h -0.27596 -0.27647 l -0.11523,0.19172 -0.11524,0.1912 0.53898,0.78445 0.5395,0.78445 -0.0522,0.458366 -0.0517,0.45836 -0.28422,0.0548 -0.28422,0.0553 -0.45527,-0.797366 -0.45578,-0.79685 -0.32453,-0.17829 -0.32453,-0.17828 -0.1664,0.10542 -0.16639,0.10542 v 0.28422 0.28422 l 0.67902,1.171506 0.67903,1.1715 v 0.28577 0.28577 l -0.1757,0.33642 -0.1757,0.33641 h -0.22014 -0.21962 l -0.18966,-0.39119 -0.18913,-0.39171 -0.37466,-0.95705 -0.37517,-0.95704 -0.29869,-0.32867 -0.2992,-0.329166 -0.26872,0.10593 -0.26872,0.10594 v 0.274396 0.2744 l 0.70435,1.92702 0.70487,1.92701 -0.15296,0.43977 -0.15297,0.43976 -0.29248,0.18811 -0.29249,0.1881 -0.1726,-0.17725 -0.17312,-0.17725 -0.15606,-0.77618 -0.15658,-0.77567 -0.27957,-1.30534 -0.27905,-1.30483 -0.24857,-0.39171 -0.24856,-0.39171 h -0.25632 -0.2558 l -0.0873,0.23358 -0.0873,0.23358 0.45527,2.68097 0.45476,2.68149 0.0744,0.43512 0.0744,0.43511 -0.5116,0.50126 -0.5116,0.50127 -0.23151,-0.0915 -0.23151,-0.091 -0.2036,-2.67219 -0.20361,-2.67219 5.2e-4,-0.72554 5.2e-4,-0.72553 -0.10336,-0.27492 -0.10283,-0.27544 h -0.32556 -0.32557 l -0.1788,0.47853 -0.1788,0.47852 0.0481,3.76773 0.0481,3.76773 -0.23306,0.28835 -0.23358,0.28836 -0.59531,0.25476 -0.59479,0.25477 -0.14366,-0.22118 -0.14315,-0.22169 0.0935,-0.60875 0.094,-0.60926 0.23616,-1.39217 0.23617,-1.39216 0.2005,-2.38022 0.2005,-2.3797 -0.11265,-0.18707 -0.11265,-0.18655 h -0.32298 -0.32246 l -0.18914,0.71882 -0.18862,0.71882 -0.14934,0.8909 -0.14986,0.8909 -0.27182,1.47898 -0.27182,1.4795 -0.32298,2.00091 -0.32298,2.00143 -0.35863,0.29869 -0.35812,0.29921 -0.59014,0.11317 -0.58963,0.11369 -0.0951,-0.0977 -0.0956,-0.0977 0.21394,-0.92398 0.21342,-0.92345 0.54571,-1.91462 0.5457,-1.91409 0.19999,-0.69608 0.19998,-0.69608 0.39481,-1.39217 0.39481,-1.39216 0.0889,-0.38344 0.0889,-0.38344 -0.21187,-0.29714 -0.21239,-0.29765 -0.24288,0.0956 -0.24288,0.0956 -0.62425,1.62936 -0.62425,1.62935 -1.34773,3.74138 -1.3472,3.74137 -0.20671,0.46406 -0.2067,0.46353 -0.36122,0.0997 -0.36122,0.0992 -0.7214,0.002 -0.7214,0.002 v -0.24392 -0.24443 l 2.80034,-5.76605 2.80086,-5.76606 v -0.346746 -0.34726 l -0.25683,-0.10077 -0.25683,-0.10129 -0.21394,0.1819 -0.21342,0.1819 -1.28778,2.230356 -1.28778,2.23035 -1.19269,2.08825 -1.19269,2.08824 -0.960148,1.76889 -0.96015,1.76836 -0.23978,0.20361 -0.23926,0.20412 -1.11311,-0.12247 -1.11363,-0.12196 -0.0971,-0.16123 -0.0966,-0.16071 1.06919,-1.51516 1.06919,-1.51515 2.464438,-3.39359 2.46394,-3.39359 0.97875,-1.39113 0.97875,-1.391646 v -0.2868 -0.28629 l -0.27905,-0.11007 -0.27906,-0.10955 -0.33383,0.3085 -0.33434,0.30903 -2.05982,2.506306 -2.060338,2.50682 -1.10329,1.35444 -1.10278,1.35444 -1.84898,2.28771 -1.848469,2.28824 -0.243396,0.0956 -0.243396,0.0956 -0.708484,-0.20619 -0.708484,-0.2067 -0.466638,-0.18604 -0.466638,-0.18655 v -0.31419 -0.31471 l 3.946012,-3.81114 3.946013,-3.81114 2.254638,-2.13992 2.25413,-2.139916 0.17621,-0.33693 0.1757,-0.33745 -0.20825,-0.25735 -0.20826,-0.25734 -0.22066,0.0512 -0.22014,0.0512 -2.15129,1.82677 -2.151288,1.827276 -1.3162,1.13119 -1.3162,1.1312 -2.098575,1.82108 -2.098063,1.82056 -1.484147,1.35495 -1.48363,1.35496 h -0.345855 -0.345716 l -0.981335,-0.50798 -0.980819,-0.50746 -0.213424,-0.26355 -0.213423,-0.26355 0.309542,-0.31626 0.310058,-0.31626 5.090645,-3.45044 5.090132,-3.45095 2.88509,-1.944066 2.885608,-1.94355 0.0512,-0.36948 0.0517,-0.36949 -0.28473,-0.11214 -0.28474,-0.11214 -1.12448,0.63976 -1.124478,0.63924 -2.93625,1.75596 -2.935741,1.756476 -1.137399,0.67076 -1.137398,0.67076 -2.376599,1.39888 -2.376082,1.3994 -1.018026,0.65784 -1.018542,0.65733 -0.629419,0.30334 -0.629419,0.30282 -0.643372,-0.46147 -0.643888,-0.46095 -0.635104,-0.60152 -0.634586,-0.60099 0.0863,-0.23151 0.0863,-0.231 1.99161,-0.89607 1.991093,-0.89607 3.564123,-1.59318 3.564124,-1.593176 1.061434,-0.50953 1.061434,-0.50902 h 0.09508 0.09508 l 0.905367,-0.42426 0.90486,-0.42478 1.33325,-0.54467 1.33273,-0.54519 1.272798,-0.64027 1.2733,-0.64027 v -0.34778 -0.3483 l -0.45423,-0.0532 -0.45424,-0.0537 -0.819068,0.34106 -0.81856,0.34107 -1.95181,0.73535 -1.951822,0.73536 -2.546098,0.92707 -2.545581,0.92656 -1.86707,0.70797 -1.867069,0.70745 -1.358057,0.49713 -1.35754,0.49713 -1.999878,0.804596 -1.999361,0.8046 H 79.04409 78.624995 l -0.316777,-0.32505 -0.317293,-0.32504 -0.70125,-0.952396 -0.701249,-0.95239 v -0.19844 -0.19792 l 0.466638,-0.11472 0.466639,-0.11421 6.280236,-1.6061 6.279721,-1.60559 2.715596,-0.65526 2.715596,-0.65525 2.42156,-0.61289 2.421558,-0.61236 0.27905,-0.20929 0.27957,-0.20981 -0.10697,-0.28577 -0.10749,-0.28628 -0.55655,0.003 -0.557078,0.003 -1.4428,0.2465 -1.44281,0.24649 -3.055109,0.54105 -3.055111,0.54157 -0.254248,0.0755 -0.254764,0.076 -3.479375,0.61288 -3.479374,0.6134 -3.345532,0.59841 -3.345532,0.59893 -0.6134,0.17363 -0.613399,0.17364 -0.257865,-0.10181 -0.258382,-0.10128 -0.662492,-1.44384 -0.663009,-1.44332 v -0.1788 -0.17829 l 0.29714,-0.15968 0.297139,-0.15968 2.970361,-0.19947 2.970362,-0.19999 0.933276,-0.077 0.933277,-0.0775 4.158402,-0.27234 4.158403,-0.27285 2.291333,-0.15348 2.291333,-0.15399 2.630846,-0.1943 2.63085,-0.19482 0.381888,-0.16279 0.38189,-0.16329 v -0.25425 -0.25477 l -0.2124,-0.14056 -0.21187,-0.14107 -14.083374,-0.0868 -14.083378,-0.0868 -0.376721,-1.47949 -0.376722,-1.47898 -0.0093,-0.652674 -0.0088,-0.652673 0.127124,0.0057 0.127124,0.0062 0.329695,0.255281 0.329696,0.255282 h 0.888318 0.888835 l 1.242818,0.172082 1.242818,0.172083 1.951819,0.170532 1.951819,0.171049 1.273307,0.181384 1.27279,0.181901 2.376083,0.273369 2.376599,0.272851 0.848527,0.08268 0.848527,0.0822 3.818888,0.41909 3.81889,0.41962 1.73943,0.11729 1.739938,0.11834 v -0.36689 -0.36691 l -0.29671,-0.16107 -0.297138,-0.16019 -0.93328,-0.120935 -0.93327,-0.120923 -0.60875,-0.158646 -0.60823,-0.159164 -1.51309,-0.274918 -1.513603,-0.274402 -1.018025,-0.160714 -1.018543,-0.160197 -1.442806,-0.271301 -1.442289,-0.271301 -1.358057,-0.243396 -1.35754,-0.24288 -1.527555,-0.264066 -1.527555,-0.264067 -1.612822,-0.263033 -1.612304,-0.263033 -4.198711,-0.850594 -4.19871,-0.851111 -0.278019,-0.236678 -0.278536,-0.236678 0.141077,-1.743563 0.14056,-1.744079 0.0078,-1.044381 0.0083,-1.043864 -0.372587,-0.05426 z m 45.32695,1.37511 -0.22635,0.07648 -0.22634,0.07648 -0.0568,0.397392 -0.0569,0.397391 0.22686,-0.07648 0.22635,-0.07648 0.0568,-0.397392 z m 34.00206,2.449979 -1.44281,0.430465 -1.44281,0.429948 -6.95874,1.762683 -6.95875,1.7632 -1.27279,0.336413 -1.27331,0.336931 -2.12132,0.55087 -2.12183,0.550871 -1.07849,0.325045 -1.07849,0.325562 h -0.28938 -0.28888 l -0.31315,0.234611 -0.31316,0.234611 0.1328,0.220145 0.13281,0.22014 0.8692,-0.0899 0.8692,-0.0894 2.46083,-0.469224 2.46135,-0.469222 1.27279,-0.240813 1.27279,-0.241329 2.12183,-0.350883 2.12132,-0.350883 2.20658,-0.416512 2.20659,-0.416512 1.69705,-0.304374 1.69757,-0.304891 0.60617,-0.217041 0.60668,-0.217558 2.02416,-0.375687 2.02417,-0.375688 0.99477,-0.1757 0.99477,-0.176216 0.61754,-0.207223 0.61805,-0.207739 v -0.33538 -0.33538 l -0.81442,-0.599447 -0.81442,-0.599963 -0.71314,-0.077 z m -15.3324,9.248015 -0.26872,0.10594 -0.26872,0.10542 v 0.39532 0.39481 l 0.26614,0.22634 0.26561,0.22634 0.2434,0.48214 0.2434,0.48266 v 2.06241 2.06189 l -0.20361,0.20877 -0.2036,0.20877 h -0.82579 -0.82579 l -0.31471,-0.1726 -0.31471,-0.17259 -0.11937,-1.17616 -0.11989,-1.17564 -0.15348,-0.30282 -0.154,-0.30283 -0.49558,-0.26303 -0.49557,-0.26252 h -1.61282 -1.61283 l -0.44545,0.20774 -0.44493,0.20774 -0.24185,0.47956 -0.24184,0.47956 v 4.0106 4.010606 l 0.61391,0.6966 0.61392,0.6966 h 0.30127 0.30179 l 0.10284,-0.27544 0.10284,-0.27491 v -0.9431 -0.94258 h 0.38189 0.38188 l 0.76378,0.90382 0.76378,0.90382 0.30076,0.49868 0.30075,0.49816 0.0605,1.78749 0.061,1.78697 0.23255,0.45114 0.23254,0.45061 2.20658,2.47479 2.20659,2.47427 0.63717,0.7152 0.63665,0.7152 0.17725,0.65784 0.17725,0.65733 -0.0506,4.57698 -0.0501,4.57698 -1.33428,1.50637 -1.33429,1.50688 0.0982,0.26303 0.0987,0.26304 h 0.32504 0.32505 l 1.16479,-0.81752 1.16478,-0.81804 1.44333,-1.20355 1.44332,-1.20354 1.82108,-1.80971 1.82159,-1.80971 0.30024,-0.56275 0.30024,-0.56328 -0.0589,-9.74462 -0.0589,-9.745136 0.24236,-0.71365 0.24236,-0.71366 1.07229,-1.94613 1.07177,-1.94613 0.16795,0.0574 0.16794,0.0574 -0.0269,9.998346 -0.0269,9.99784 0.15141,0.23461 0.15142,0.23461 0.31781,-0.0625 0.31832,-0.063 0.55449,-0.86765 0.55449,-0.86816 1.3379,-2.69699 1.3379,-2.69751 0.43357,-1.1312 0.43356,-1.1312 0.44029,-1.39164 0.43976,-1.39217 0.32143,-1.39216 0.32143,-1.39216 0.36638,-1.786966 0.36587,-1.78698 0.0186,-3.32537 0.0186,-3.32538 -0.39274,-0.32608 -0.39222,-0.32556 h -2.70527 -2.70526 l -0.48575,0.25735 -0.48576,0.25786 -1.52342,2.74402 -1.52343,2.74454 -1.39733,2.78432 -1.39733,2.784326 -1.27951,2.52284 -1.28002,2.52336 -0.3545,0.49558 -0.35502,0.49558 -0.45837,0.24391 -0.45837,0.24443 h -0.84387 -0.84388 l -0.49816,-0.42995 -0.49765,-0.42943 -2.10323,-2.55333 -2.10374,-2.55385 -1.73995,-2.078946 -1.73943,-2.07894 v -0.39584 -0.39636 l 0.35192,-0.45837 0.3514,-0.45837 h 0.6103 0.6103 l 2.82463,3.00189 2.82412,3.001876 0.72708,0.81959 0.72709,0.8201 0.33176,0.10801 0.33228,0.108 0.23461,-0.19999 0.23513,-0.19998 1.01183,-2.14613 1.01182,-2.146116 1.00614,-1.80092 1.00562,-1.80144 0.98909,-2.00143 0.98857,-2.00091 0.22945,-0.34313 0.22996,-0.34365 v -0.44855 -0.44856 l -0.20361,-0.20877 -0.2036,-0.20877 h -5.04414 z m 25.44857,10.07329 -0.42478,0.28525 -0.42478,0.28577 -0.34778,0.736386 -0.34778,0.73639 v 0.74 0.73949 l 0.19069,0.37983 0.19016,0.38033 0.43564,0.47853 0.43511,0.47852 h 0.84078 0.84129 l 0.51005,-0.56534 0.51004,-0.56585 0.61857,-1.1312 0.61857,-1.1312 0.52813,-0.0532 0.52813,-0.0532 0.2713,0.39636 0.27079,0.39687 v 0.49971 0.50023 l -0.29146,0.5054 -0.29093,0.50539 h -0.20826 -0.20774 l -0.1049,-0.17415 -0.10491,-0.17415 h -0.38033 -0.38034 l -0.20361,0.20929 -0.2036,0.20877 v 0.36536 0.36535 l 0.2036,0.20877 0.20361,0.20877 h 0.74104 0.74104 l 0.32297,-0.17725 0.32298,-0.17725 0.42943,-0.75137 0.42995,-0.75189 v -0.92088 -0.92139 l -0.34261,-0.56844 -0.34262,-0.56792 -0.41548,-0.279056 -0.41496,-0.27905 h -0.74776 -0.74775 l -0.63459,0.739486 -0.63459,0.74001 -0.53485,0.95705 -0.53485,0.95704 h -0.50074 -0.50127 l -0.24339,-0.44545 -0.24391,-0.44493 0.11265,-0.59893 0.11214,-0.59893 0.14573,-0.23616 0.14624,-0.23565 0.42168,0.28319 0.42168,0.28319 0.28009,-0.11007 0.27957,-0.11008 0.10852,-0.44286 0.10852,-0.442866 -0.1695,-0.2775 -0.1695,-0.2775 -0.6103,-0.0532 z m -100.675502,1.699626 -0.461987,0.35347 -0.461471,0.35347 -0.232544,0.62632 -0.232544,0.62631 0.111621,0.61134 0.112138,0.61184 0.422713,0.51522 0.42323,0.51573 0.602548,0.2036 0.602547,0.20413 0.962215,-0.11679 0.961698,-0.11679 0.593763,-0.14521 0.594279,-0.1447 0.810803,-0.1018 0.81132,-0.1018 0.195853,0.44028 0.195337,0.44029 0.3514,-0.0512 0.350883,-0.0517 -0.05478,-0.95705 -0.05426,-0.95705 -0.253732,-0.78031 -0.254248,-0.7798 -0.192236,-0.12195 -0.192753,-0.12196 -0.135392,0.0858 -0.135392,0.0858 v 0.68212 0.68265 l -0.381889,0.0796 -0.381889,0.0796 -0.763778,0.10336 -0.763777,0.10387 -1.098641,0.15606 -1.098641,0.15606 -0.461471,-0.0946 -0.46147,-0.0951 -0.180351,-0.5302 -0.180351,-0.53072 0.04289,-0.0222 0.04341,-0.0222 0.509013,-0.17053 0.509529,-0.17002 0.05271,-0.5612 0.05323,-0.56121 -0.439767,-0.20515 z m 99.455942,3.85455 -0.40049,0.10283 -0.40049,0.10336 -0.3328,1.17564 -0.33331,1.17564 -0.36277,1.33376 -0.36277,1.33326 v 0.34468 0.34416 l 0.29662,0.11679 0.29663,0.11679 0.38964,-0.46457 0.39015,-0.46509 0.45941,0.0935 0.45888,0.0935 0.9338,0.26097 0.93327,0.26096 1.10329,0.33176 1.1033,0.33125 0.0512,0.52555 0.0512,0.52555 -0.002,0.004 0.65009,0.23099 0.0289,-0.0186 0.19482,-0.12351 0.42064,-1.45676 0.42117,-1.45624 0.33434,-1.17977 0.33487,-1.17926 -0.0538,-0.38706 -0.0532,-0.38654 -0.8475,-0.28783 -0.84749,-0.28836 -0.29817,0.16382 -0.29818,0.16381 -0.002,0.21136 -0.002,0.21135 0.54208,0.45682 0.54261,0.45734 -0.20568,0.93483 -0.20567,0.93534 -0.14676,0.2403 -0.14676,0.24081 -0.57051,-0.11266 -0.56999,-0.11265 -0.19689,-0.12816 -0.19637,-0.12867 0.0904,-0.48473 0.0899,-0.48472 0.5731,-0.24547 0.57309,-0.24546 v -0.24856 -0.24857 l -0.21188,-0.17415 -0.21239,-0.17363 -0.91053,-0.26923 -0.91054,-0.26924 -0.23513,0.092 -0.23513,0.0925 v 0.39791 0.3979 l 0.25477,0.10026 0.25424,0.10025 -0.003,0.48369 -0.003,0.48421 -0.13332,0.21497 -0.13333,0.21549 -1.17874,-0.34571 -1.17925,-0.34572 h -0.0429 -0.0429 l 0.001,-0.21756 5.1e-4,-0.21755 0.1695,-0.60927 0.1695,-0.60875 0.15141,-0.24236 0.15142,-0.24185 0.65422,-0.10852 0.65422,-0.108 0.0507,-0.36225 0.0506,-0.36277 -0.77877,-0.30489 z m -96.182757,1.42627 -0.910539,0.48627 -0.910538,0.48628 -0.551388,0.94154 -0.551904,0.94206 v 1.0139 1.01389 l 0.228926,0.55965 0.228927,0.56018 0.471806,0.5736 0.471806,0.57361 0.784448,0.41858 0.784448,0.41961 0.700216,0.008 0.699699,0.008 0.743107,-0.2682 0.74259,-0.2682 0.733806,-0.73225 0.733805,-0.73226 0.241846,-0.58704 0.242362,-0.58653 v -0.94878 -0.94826 l 0.63252,0.53433 0.633036,0.53485 h 0.464571 0.464054 l 0.175183,-0.33538 0.175184,-0.33538 -0.104387,-0.27853 -0.103869,-0.27854 -0.276986,-0.15193 -0.277503,-0.15193 -0.788065,-0.12143 -0.788583,-0.12093 -0.175699,0.32143 -0.175184,0.32143 -0.192236,-0.52193 -0.192236,-0.52194 -0.541052,-0.58704 -0.541053,-0.58653 -0.679028,-0.32298 -0.679028,-0.32297 -0.956531,-0.004 z m 0.459404,1.56631 h 0.985986 0.985986 l 0.378272,0.27182 0.378271,0.2713 0.253732,0.50281 0.253731,0.50281 -5.17e-4,0.66146 -0.001,0.66094 -0.331763,0.55863 -0.33228,0.55862 -0.643371,0.33228 -0.642855,0.33228 -0.763778,0.0853 -0.763777,0.0858 -0.45682,-0.0734 -0.45682,-0.0734 -0.500744,-0.52503 -0.500745,-0.52503 -0.103353,-0.53175 -0.103869,-0.53227 0.167948,-0.64027 0.168465,-0.64027 0.386023,-0.37207 0.386023,-0.37207 0.628902,-0.26924 z m 94.683623,3.63492 -0.51056,0.11472 -0.51057,0.11524 -0.62683,0.58033 -0.62735,0.58084 -0.71882,1.55081 -0.71882,1.55133 -0.0351,0.49712 -0.0357,0.49713 0.32556,0.0682 0.32505,0.0687 0.28887,-0.39274 0.28835,-0.39222 2.4412,1.11983 2.44119,1.11983 -0.0465,0.42219 -0.047,0.4222 0.0842,0.22427 0.0853,0.22376 h 0.34003 0.33951 l 0.59893,-1.32963 0.59945,-1.32964 v -0.32866 -0.32918 l -0.26303,-0.10387 -0.26355,-0.10335 -0.38396,0.37 -0.38447,0.37001 h -0.27802 -0.27802 l -0.43253,-0.20206 -0.43202,-0.20154 v -0.2868 -0.2868 l 0.2403,-0.33797 0.24029,-0.33796 1.49965,-0.0868 1.49914,-0.0868 0.47025,-0.95188 0.47078,-0.95239 -0.0946,-0.25218 -0.0269,-0.0713 -0.70435,-0.25011 -0.21033,0.36587 -0.36587,0.63562 -0.36483,0.0744 -0.36432,0.0744 -0.87953,0.0889 -0.87954,0.0889 -0.10232,-0.47594 -0.1018,-0.47594 -0.33745,-0.56895 -0.33744,-0.56948 -0.60772,-0.25993 z m -90.513852,0.62839 -0.05478,0.49402 -0.05529,0.49403 -0.793233,0.99787 -0.79375,0.99839 -1.230416,1.49913 -1.230416,1.49965 v 0.35244 0.35191 l 0.296623,0.154 0.297139,0.15348 2.620512,-0.14108 2.620512,-0.14056 0.466122,-0.1049 0.466121,-0.10542 0.360702,0.37052 0.360701,0.37 -0.05271,0.2775 -0.05271,0.27751 -2.096513,1.46296 -2.096513,1.46296 -0.309541,-0.28732 -0.309542,-0.28733 -0.309542,0.0605 -0.309542,0.0605 -0.04031,0.34623 -0.04031,0.34623 1.571997,2.26085 1.57148,2.26032 0.304891,0.0605 0.305408,0.0605 0.654224,-0.46509 0.654223,-0.46509 0.10387,-0.27699 0.103353,-0.2775 -0.241846,-0.24805 -0.242363,-0.24856 -0.601513,0.22324 -0.601514,0.22325 -0.275435,-0.23462 -0.275436,-0.23461 -0.433048,-0.75654 -0.432532,-0.75706 0.218075,-0.26923 0.218074,-0.26924 0.461988,-0.24494 0.461987,-0.24495 0.228926,0.28422 0.229444,0.2837 v 0.79634 0.79581 l 0.2682,0.0538 0.268718,0.0537 0.834574,-0.59014 0.835091,-0.58963 v -0.41806 -0.41755 l -0.594279,-0.0532 -0.593762,-0.0532 -0.21239,-0.28474 -0.21239,-0.28474 v -0.21807 -0.21808 l 0.976168,-0.71623 0.975651,-0.71675 0.551904,0.61753 0.551388,0.61702 v 0.4439 0.4439 l -0.272852,0.42736 -0.273368,0.42737 0.09819,0.26251 0.09819,0.26252 h 0.306958 0.306958 l 0.399976,-0.28732 0.399459,-0.28681 0.313159,0.41755 0.313159,0.41754 0.0062,0.17415 0.0057,0.17364 -1.826762,1.79214 -1.827279,1.79213 -0.424263,-0.10077 -0.424264,-0.10076 -0.254765,-0.0382 -0.254248,-0.0377 -0.05323,0.38086 -0.05271,0.38085 0.827856,0.88057 0.827856,0.88108 h 0.290939 0.291455 l 0.09819,-0.26355 0.0987,-0.26303 -0.19172,-0.23668 -0.191719,-0.23719 0.09974,-0.26562 0.09922,-0.26562 1.457276,-1.36012 1.457275,-1.36013 -0.101286,0.77722 -0.101802,0.77721 -0.266134,1.39216 -0.266134,1.39217 -0.1757,1.02784 -0.175699,1.02785 0.08733,0.23357 0.08785,0.2341 h 0.326595 0.326595 l 2.150256,-2.09445 2.150256,-2.09444 0.66921,0.54363 0.66921,0.54312 -0.116272,0.20257 -0.116272,0.20206 -0.529167,0.69608 -0.529683,0.69608 -0.985986,1.26091 -0.985987,1.26038 -0.660424,-0.108 -0.660425,-0.10852 v 0.4377 0.43822 l 1.654679,1.26969 1.654679,1.2702 0.557589,0.48938 0.558106,0.48886 h 0.234611 0.234611 l 0.494543,-0.65268 0.49506,-0.65215 0.114205,-0.20206 0.113688,-0.20205 -0.103352,-0.27647 -0.10387,-0.27699 h -0.288871 -0.288872 l -0.329179,0.2558 -0.329695,0.25528 -0.311609,0.006 -0.311609,0.006 -0.749308,-0.55139 -0.748792,-0.55139 v -0.23874 -0.23823 l 0.371037,-0.51521 0.371554,-0.51522 h 0.273368 0.273885 l 0.203605,0.20877 0.203605,0.20929 v 0.53899 0.5395 l 0.203605,0.20877 0.203606,0.20929 h 0.204638 0.205156 l 0.609782,-0.87074 0.609782,-0.87075 v -0.35295 -0.35295 l -0.241329,-0.0951 -0.241329,-0.0951 -0.363802,0.19999 -0.364319,0.19998 -0.412895,-0.2775 -0.412895,-0.2775 v -0.19792 -0.19741 l 0.684196,-0.92965 0.684713,-0.92915 h 0.182418 0.181901 l 0.660941,0.5364 0.660942,0.53692 v 0.34468 0.3452 l -0.168982,0.32401 -0.169499,0.32402 0.102836,0.27336 0.10232,0.27389 h 0.399975 0.399976 l 0.430465,-0.64957 0.430464,-0.64958 v -0.37413 -0.37466 l -2.078943,-1.61024 -2.079459,-1.61023 -1.060401,-1.05834 -1.059883,-1.05781 -0.264067,0.27078 -0.264066,0.27027 0.21549,0.48524 0.215491,0.48524 -1.172538,1.13947 -1.173055,1.13946 -0.07183,-0.22117 -0.07183,-0.22118 0.182935,-0.98392 0.183451,-0.9834 0.271818,-1.51257 0.272335,-1.51205 -0.172082,-0.3297 -0.172083,-0.33021 -0.730188,-0.67696 -0.730188,-0.67748 0.04031,-0.12764 0.04031,-0.12764 -0.928108,-1.35547 -0.928109,-1.35496 -0.80977,-1.33325 -0.809253,-1.33325 -0.289388,-0.53744 -0.288871,-0.53795 h -0.335926 -0.336413 l -0.05374,0.47698 -0.05374,0.47645 -0.678512,0.12247 -0.679028,0.12248 -1.400432,0.0103 -1.399914,0.0103 v -0.14159 -0.1416 l 0.509013,-0.50023 0.509013,-0.49971 0.721403,-0.93121 0.721403,-0.93069 0.636653,0.10852 0.636137,0.10852 -0.0036,-0.49402 -0.0041,-0.49351 -0.463538,-0.87024 -0.463538,-0.87023 h -0.423746 z m 90.564492,0.95704 0.43667,0.44752 0.43615,0.44752 -0.11007,0.70538 -0.11007,0.7059 -0.17002,0.32608 -0.17053,0.32608 -0.12144,-0.008 -0.12092,-0.008 -0.97617,-0.51676 -0.97565,-0.51625 v -0.30644 -0.30696 l 0.28887,-0.42995 0.28939,-0.43046 0.26251,-0.21188 0.262,-0.21187 0.38964,-0.006 z m -3.93257,5.04672 -0.62994,0.3328 -0.62942,0.3328 -0.5364,0.58084 -0.53588,0.58084 -0.27027,0.67386 -0.26975,0.67386 v 0.88057 0.88108 l 0.339,0.71831 0.33899,0.71778 0.51883,0.50953 0.51884,0.51005 0.7121,0.30696 0.7121,0.30747 0.94568,-0.0687 0.94568,-0.0687 0.68264,-0.35708 0.68316,-0.35709 0.53072,-0.62011 0.53123,-0.62012 0.27079,-0.95602 0.2713,-0.95653 -0.27492,-0.97048 -0.27543,-0.96997 -0.76223,-0.78186 -0.76275,-0.78186 -0.58136,-0.24909 -0.58136,-0.24908 h -0.94567 z m -0.31833,1.34979 0.93586,0.0796 0.93534,0.0796 0.6997,0.50694 0.69919,0.50746 0.33176,0.45837 0.33176,0.45889 0.0749,0.75964 0.076,0.75913 -0.35244,0.57619 -0.35243,0.5762 -0.58498,0.25063 -0.58498,0.25011 -0.38705,-0.0155 -0.38757,-0.0155 -0.55449,-0.16433 -0.55449,-0.16381 -0.74569,-0.73381 -0.74569,-0.73432 -0.11886,-0.65112 -0.11834,-0.65164 0.11317,-0.46354 0.11369,-0.46405 0.58756,-0.60255 z m -4.48293,5.0891 -0.70125,0.34778 -0.70125,0.3483 -1.55908,1.62936 -1.55856,1.62987 v 0.17622 0.17622 l 0.2682,0.2284 0.26872,0.22841 0.32298,-0.20722 0.32349,-0.20722 0.21446,0.005 0.21446,0.004 1.86707,1.81075 1.86707,1.81074 -0.21239,0.3576 -0.21188,0.3576 v 0.26355 0.13798 l 0.30903,0.29972 h 0.18552 0.3023 l 1.40664,-1.60972 1.40559,-1.60972 0.31265,-0.69608 0.31212,-0.69608 0.004,-0.74518 0.004,-0.74517 -0.25993,-0.63769 -0.25993,-0.63769 -0.42944,-0.57722 -0.42943,-0.57723 -0.8325,-0.43253 -0.83251,-0.43253 h -0.80099 z m -0.32194,1.39216 h 0.67592 0.67593 l 0.73174,0.50385 0.73225,0.50384 0.39585,0.67076 0.39584,0.67076 5.1e-4,0.66094 5.2e-4,0.66146 -0.23926,0.46974 -0.23926,0.46974 -0.48886,0.47646 -0.48834,0.47594 -1.98903,-1.92702 -1.98851,-1.92701 0.34365,-0.49455 0.34365,-0.49454 0.56844,-0.36018 z m -6.91379,4.69791 v 0.66404 0.66456 l 0.33796,1.29346 0.33848,1.29346 0.35553,1.47898 0.35554,1.47898 -0.10335,0.66301 -0.10336,0.66352 0.0982,0.1633 0.0982,0.16381 0.20206,-5.1e-4 0.20257,-5.2e-4 0.50901,-0.32349 0.50902,-0.3235 0.47852,-0.46199 0.47904,-0.46198 -0.0605,-0.30128 -0.0615,-0.30179 -0.53226,0.0243 -0.53175,0.0243 -0.10853,-0.44442 -0.10852,-0.44442 0.47698,-0.41289 0.47645,-0.41238 0.62581,-0.44442 0.62476,-0.4439 0.308,0.17777 0.3085,0.17725 v 0.57361 0.57309 l 0.30645,0.062 0.30489,0.062 0.91829,-0.72657 0.9188,-0.72657 0.10336,-0.33228 0.0568,-0.18397 -0.33331,-0.32246 h -0.43408 -0.62219 l -2.8298,-1.56631 -2.8298,-1.56579 h -0.36742 z m 1.53582,2.26239 h 0.17777 0.17776 l 0.77825,0.46767 0.77825,0.46767 -0.57206,0.48938 -0.57154,0.48989 h -0.13798 -0.13797 l -0.14056,-0.39171 -0.14005,-0.3917 -0.10593,-0.56534 z m -57.737559,0.66197 -0.570508,0.10956 -0.569991,0.10955 -0.521932,0.60978 -0.521932,0.60979 v 0.60978 0.60978 l 0.321427,0.64596 0.320911,0.64543 0.375687,0.3483 0.375688,0.34779 0.331763,0.66662 0.331763,0.66714 -0.268718,0.42065 -0.269234,0.42116 h -0.480074 -0.480074 l -0.575676,-0.3979 -0.575158,-0.3974 -0.05323,-0.28112 -0.05271,-0.28112 0.422713,-0.43356 0.422197,-0.43305 -0.09508,-0.37259 -0.09509,-0.37258 -0.339514,-0.18656 -0.339514,-0.18655 -0.411861,0.19224 -0.411861,0.19223 -0.239262,0.58808 -0.239779,0.5886 0.144694,0.51831 0.145211,0.51832 0.200504,0.38395 0.200505,0.38396 0.784965,0.51004 0.783932,0.51057 h 0.823722 0.824239 l 0.497644,-0.26407 0.498161,-0.26407 0.257348,-0.51004 0.257349,-0.51057 v -0.59376 -0.59376 l -0.930176,-1.28571 -0.930176,-1.28571 -0.0031,-0.45734 -0.0026,-0.45681 0.252698,-0.2155 0.252698,-0.21497 0.56844,0.10955 0.568958,0.10956 0.396358,0.43201 0.395842,0.43254 -0.36897,0.40307 -0.36897,0.40256 v 0.28939 0.28939 l 0.424264,0.28473 0.424263,0.28526 0.42168,-0.28319 0.42168,-0.28319 0.105936,-0.43304 0.105937,-0.43305 -0.117306,-0.47853 -0.116788,-0.47852 -0.733806,-0.72037 -0.733288,-0.72037 -0.621668,-0.21032 z m 52.129119,0.36897 -0.72141,0.19482 -0.7214,0.19482 -0.72244,0.42892 -0.72243,0.42891 -0.50643,0.90537 -0.50643,0.90589 -0.003,0.96635 -0.002,0.96635 0.42323,0.87075 0.42271,0.87023 0.47336,0.46509 0.47284,0.46457 0.67386,0.2527 0.6749,0.25269 0.67902,0.0114 0.67903,0.0114 0.64389,-0.18345 0.64389,-0.18293 0.7767,-0.76326 0.77721,-0.76327 0.44597,-0.0532 0.44596,-0.0532 0.0527,-0.37775 0.0522,-0.37828 -0.34572,-0.69556 -0.34623,-0.69556 0.0388,-0.66663 0.0398,-0.66611 -0.33952,-0.0413 -0.33951,-0.0419 -1.25574,0.73742 -1.25573,0.73743 -0.17726,0.2899 -0.17725,0.29042 0.21963,0.27027 0.21911,0.27078 0.59789,-0.25579 0.5979,-0.25632 h 0.23358 0.23409 v 0.48318 0.48369 l -0.2651,0.38757 -0.26458,0.38757 -0.49041,0.26045 -0.49041,0.25994 h -0.52607 -0.52606 l -0.45837,-0.24443 -0.45837,-0.24495 -0.37362,-0.41031 -0.37414,-0.41031 -0.26252,-0.64441 -0.26251,-0.64492 v -0.71003 -0.71055 l 0.25011,-0.49661 0.25063,-0.49662 0.59376,-0.3762 0.59377,-0.3762 0.53898,0.0548 0.53899,0.0553 0.17105,0.34778 0.17104,0.3483 0.11783,0.26096 0.11782,0.26097 0.3545,0.0543 0.35398,0.0548 0.35864,-0.36794 0.35863,-0.36742 -0.10749,-0.38292 -0.10748,-0.38241 -0.4129,-0.3855 -0.41341,-0.38551 -0.67644,-0.18707 z m -5.42965,2.58383 -1.35185,0.55862 -1.35134,0.55862 -0.19792,0.24443 -0.19792,0.24443 h -0.32505 -0.32452 l -2.07326,0.62942 -2.07326,0.62942 -0.54519,0.16019 -0.5457,0.1602 -0.12299,0.20464 -0.12351,0.20412 0.0315,0.61598 0.0315,0.61547 -0.18655,-0.32091 -0.18656,-0.32143 -0.70435,-0.32763 -0.70383,-0.32762 -0.50901,0.001 -0.50901,0.001 -0.76378,0.39946 -0.76378,0.39946 -0.39688,0.59635 -0.39635,0.59634 0.0858,0.66973 0.0858,0.66921 0.36277,0.39584 0.36277,0.39584 0.62735,0.27234 0.62684,0.27181 0.80977,0.10956 0.80925,0.10904 0.45992,0.40566 0.46044,0.40617 -0.17002,0.49661 -0.1695,0.49661 -0.70538,0.25115 -0.7059,0.25115 -0.44959,-0.20981 -0.44958,-0.21032 0.11265,-0.52658 0.11317,-0.5271 -0.20567,-0.25373 -0.20567,-0.25425 h -0.34778 -0.34778 l -0.31006,0.28835 -0.31058,0.28784 v 0.3297 0.32969 l 0.25787,0.51108 0.25735,0.51056 0.63355,0.34314 0.63355,0.34209 0.62219,0.008 0.6227,0.008 0.7462,-0.32763 0.74621,-0.32815 0.45579,-0.555 0.4563,-0.55552 v -0.60462 -0.60461 l -0.25838,-0.51108 -0.25787,-0.51212 -0.63872,-0.33383 -0.6382,-0.33383 -0.99994,-0.18965 -0.99942,-0.18913 -0.39533,-0.2651 -0.3948,-0.26614 v -0.31677 -0.3173 l 0.29714,-0.27543 0.29713,-0.27647 0.44856,-0.17467 0.44803,-0.17466 0.3576,0.0961 0.3576,0.0956 v 0.55397 0.55397 l 0.20361,0.20877 0.20412,0.20877 h 0.39274 0.39274 l 0.30283,-0.51056 0.30334,-0.51108 0.20515,0.33693 0.20516,0.33693 h 0.15606 0.15606 l 0.26665,-0.27337 0.26665,-0.27388 v -0.6873 -0.6873 l 0.42892,-0.2005 0.42891,-0.19999 0.13901,0.1602 0.13901,0.16071 0.63097,2.2624 0.63045,2.26239 0.0832,0.29507 0.0827,0.29559 -0.51779,0.27441 -0.5178,0.27491 v 0.33332 0.33331 l 0.13901,0.0884 0.13901,0.0879 1.17667,-0.32608 1.17616,-0.32608 0.49609,-0.15193 0.49609,-0.15244 0.16743,-0.27182 0.16744,-0.27182 -0.10956,-0.29301 -0.10955,-0.293 -0.5917,0.11369 -0.59169,0.1142 -0.16485,-0.41031 -0.16485,-0.40979 -0.60358,-2.01745 -0.60358,-2.01693 v -0.28267 -0.28216 l 0.35295,-0.1943 0.35347,-0.19379 0.63924,0.71004 0.63872,0.70952 h 0.2806 0.28112 v -0.62012 -0.62064 l -0.17673,-0.33848 -0.17674,-0.33796 0.46044,-0.17983 0.46095,-0.17932 0.21446,0.22479 0.21446,0.22428 0.58549,1.47949 0.58601,1.47898 0.36535,0.85835 0.36587,0.85834 -0.42581,0.40463 -0.4253,0.40514 0.0966,0.25942 0.0966,0.25942 h 0.38448 0.38395 l 1.21801,-0.55139 1.21853,-0.55191 -0.0506,-0.36173 -0.0501,-0.36225 -0.5855,-0.0868 -0.58498,-0.0868 -0.8878,-2.17557 -0.88728,-2.17507 -0.0124,-0.3855 -0.0124,-0.38551 0.33952,-0.18603 0.33951,-0.18655 v -0.23358 -0.23358 l -0.25321,-0.21549 z m -38.201797,1.43298 -0.101286,0.27079 -0.101286,0.27078 0.361219,0.34468 0.361218,0.3452 v 0.11059 0.11059 l -0.434599,1.31826 -0.435115,1.31827 -0.424781,1.16427 -0.42478,1.16479 -0.540535,0.0537 -0.540536,0.0537 -0.05219,0.37517 -0.05219,0.37517 0.985469,0.38293 0.98547,0.3824 0.633553,0.0909 0.633553,0.0915 0.116272,-0.31109 0.116272,-0.31058 -0.367936,-0.30489 -0.367936,-0.30541 -0.0021,-0.14624 -0.0026,-0.14624 0.804083,-2.47944 0.8046,-2.47995 h 0.40825 0.40772 l 0.57155,0.36225 0.57154,0.36174 -0.0816,0.37775 -0.0822,0.37724 -0.34882,1.56631 -0.34881,1.56631 -0.18552,0.73949 -0.185,0.73949 h -0.49196 -0.49248 l -0.1018,0.27285 -0.10232,0.27286 0.18397,0.1881 0.18396,0.18862 1.23094,0.31367 1.23093,0.31368 0.22014,-0.18707 0.22014,-0.18707 v -0.15399 -0.154 l -0.42064,-0.37465 -0.42065,-0.37517 0.0744,-0.36329 0.0744,-0.3638 0.36897,-1.62109 0.36845,-1.62109 0.13229,0.14211 0.13178,0.14211 0.71003,1.65313 0.710038,1.65313 0.48524,1.08985 0.48576,1.08986 0.27337,0.108 0.27388,0.10749 0.16485,-0.16898 0.16485,-0.16847 0.47645,-1.98592 0.47698,-1.98593 0.11834,-0.77463 0.11834,-0.77463 0.16329,-0.20154 0.1633,-0.20205 0.40566,0.0796 0.40566,0.0796 0.98754,2.86908 0.98702,2.86959 0.30075,0.50695 0.30076,0.50746 0.12971,-0.003 0.13022,-0.003 0.19896,-0.12971 0.19947,-0.13022 1.37976,-2.69493 1.37924,-2.69544 0.13126,-0.25167 0.13178,-0.25218 0.49609,-0.13797 0.49609,-0.13798 0.21239,0.29301 0.21188,0.29248 v 1.24541 1.24591 l 0.108,1.30587 0.10749,1.30638 -0.53227,0.19017 -0.53175,0.19017 v 0.25579 0.25529 l 0.21239,0.0987 0.21136,0.10077 1.25625,-0.0842 1.25626,-0.0853 h 1.40507 1.40457 l 0.26717,-0.27337 0.26665,-0.27337 -0.003,-0.55294 -0.002,-0.55345 -0.0992,-0.37931 -0.0992,-0.37982 -0.25942,-0.1018 -0.25941,-0.10232 -0.23306,0.19844 -0.23306,0.19844 v 0.37878 0.37931 l -0.20361,0.20877 -0.20412,0.20877 h -1.15393 -1.15394 v -0.85007 -0.84956 l 0.37776,-0.10129 0.37827,-0.10128 0.3855,0.25889 0.38602,0.2589 v 0.15142 0.15141 l 0.2496,0.0987 0.2496,0.0982 0.23926,-0.24546 0.23978,-0.24546 -0.0749,-0.83458 -0.0749,-0.83457 -0.078,-0.39171 -0.078,-0.39171 h -0.34003 -0.34003 l -0.19327,0.43512 -0.19326,0.43512 h -0.55346 -0.55294 l -0.0868,-0.47853 -0.0873,-0.47852 -0.10593,-0.66559 -0.10646,-0.66611 0.20051,-0.24753 0.2005,-0.24805 0.61547,0.002 0.61598,0.002 0.35708,0.0982 0.35657,0.0982 0.2372,0.55191 0.23719,0.5519 0.31936,0.061 0.31884,0.0605 0.1447,-0.23461 0.14521,-0.23461 -0.092,-0.60926 -0.092,-0.60875 -0.0801,-0.39998 -0.0806,-0.39997 -3.91346,0.0672 -3.91345,0.0667 -0.13901,0.23047 -0.13901,0.23048 0.0873,0.23358 0.0873,0.23306 h 0.22634 0.22635 l 0.0987,0.16381 0.0992,0.16382 -0.89142,1.83761 -0.89142,1.8371 h -0.11911 -0.11989 l -0.61908,-1.94613 -0.61961,-1.94614 0.39585,-0.30851 0.39584,-0.30902 -0.18759,-0.31161 -0.18758,-0.31213 -1.25522,-0.12144 -1.25471,-0.12195 -1.10329,-0.25167 -1.10329,-0.25115 -0.21239,0.17674 -0.21187,0.17725 v 0.24339 0.2434 l 0.42426,0.19844 0.42426,0.19792 v 0.15399 0.154 l -0.24494,1.07952 -0.24547,1.08004 -0.0992,0.48576 -0.0992,0.48576 -0.1328,-0.0842 -0.13281,-0.0842 -0.97721,-2.34353 -0.977708,-2.34352 -0.3142,-0.29146 -0.3147,-0.29145 -0.73433,-0.0961 -0.73432,-0.0956 -0.18707,-0.15038 -0.18707,-0.15038 -1.16995,-0.43511 -1.169955,-0.43512 h -0.38809 z"
     inkscape:export-filename="path29.png"
     inkscape:export-xdpi="144.19144"
     inkscape:export-ydpi="144.19144" /><rect
     style="fill:#163a5f;fill-opacity:1;stroke:none;stroke-width:0.363938;stroke-linejoin:bevel;stroke-opacity:1;paint-order:stroke markers fill"
     id="rect29-7"
     width="0.81871617"
     height="1.2666031"
     x="132.896"
     y="52.16053"
     ry="0"
     transform="matrix(0.98060591,0.19598994,-0.28077442,0.95977379,0,0)" /><rect
     style="fill:#163a5f;fill-opacity:1;stroke:none;stroke-width:0.293979;stroke-linejoin:bevel;stroke-opacity:1;paint-order:stroke markers fill"
     id="rect29-7-1"
     width="0.54677075"
     height="1.2375056"
     x="128.54015"
     y="39.96513"
     ry="0"
     transform="matrix(0.95596866,0.29346876,-0.18709923,0.98234102,0,0)" /><rect
     style="fill:#163a5f;fill-opacity:1;stroke:none;stroke-width:0.293979;stroke-linejoin:bevel;stroke-opacity:1;paint-order:stroke markers fill"
     id="rect29-7-1-88"
     width="0.54677075"
     height="1.2375056"
     x="116.6777"
     y="59.543987"
     ry="0"
     transform="matrix(0.98934306,0.14560324,-0.03646963,0.99933476,0,0)"
     inkscape:transform-center-x="0.13720212"
     inkscape:transform-center-y="-0.068601061" /><rect
     style="fill:#163a5f;fill-opacity:1;stroke:none;stroke-width:0.293979;stroke-linejoin:bevel;stroke-opacity:1;paint-order:stroke markers fill"
     id="rect29-7-1-8"
     width="0.54677075"
     height="1.2375056"
     x="126.52576"
     y="40.116413"
     ry="0"
     transform="matrix(0.95596866,0.29346876,-0.18709923,0.98234102,0,0)" /><rect
     style="fill:#163a5f;fill-opacity:1;stroke:none;stroke-width:0.293979;stroke-linejoin:bevel;stroke-opacity:1;paint-order:stroke markers fill"
     id="rect29-7-1-1"
     width="0.54677075"
     height="1.2375056"
     x="137.69183"
     y="9.1469584"
     ry="0"
     transform="matrix(0.867036,0.4982455,-0.40037778,0.91635017,0,0)" /><rect
     style="fill:#163a5f;fill-opacity:1;stroke:none;stroke-width:0.317277;stroke-linejoin:bevel;stroke-opacity:1;paint-order:stroke markers fill"
     id="rect30"
     width="0.49290213"
     height="0.98371285"
     x="140.74927"
     y="7.3773017"
     transform="matrix(0.86255907,0.50595638,-0.47700606,0.8789,0,0)" /><rect
     style="fill:#163a5f;fill-opacity:1;stroke:none;stroke-width:0.317277;stroke-linejoin:bevel;stroke-opacity:1;paint-order:stroke markers fill"
     id="rect30-0"
     width="0.49290213"
     height="0.98371285"
     x="140.75401"
     y="7.4379363"
     transform="matrix(0.86255907,0.50595638,-0.47700606,0.8789,0,0)" /><rect
     style="fill:#163a5f;fill-opacity:1;stroke:none;stroke-width:0.317277;stroke-linejoin:bevel;stroke-opacity:1;paint-order:stroke markers fill"
     id="rect30-3"
     width="0.49290213"
     height="0.98371285"
     x="125.60163"
     y="59.777367"
     transform="matrix(0.98930111,0.14588799,-0.11292384,0.99360365,0,0)" /></g></g></svg>
