<?xml version="1.0" encoding="UTF-8" standalone="no"?>
<!-- Created with Inkscape (http://www.inkscape.org/) -->

<svg
   width="78.341408mm"
   height="112.16743mm"
   viewBox="0 0 78.341408 112.16743"
   version="1.1"
   id="svg1"
   xml:space="preserve"
   sodipodi:docname="CAPITULO ESTUDIANTIL LOGO SVG.svg"
   inkscape:version="1.3 (0e150ed6c4, 2023-07-21)"
   xmlns:inkscape="http://www.inkscape.org/namespaces/inkscape"
   xmlns:sodipodi="http://sodipodi.sourceforge.net/DTD/sodipodi-0.dtd"
   xmlns="http://www.w3.org/2000/svg"
   xmlns:svg="http://www.w3.org/2000/svg"><sodipodi:namedview
     id="namedview1"
     pagecolor="#ffffff"
     bordercolor="#000000"
     borderopacity="0.25"
     inkscape:showpageshadow="2"
     inkscape:pageopacity="0.0"
     inkscape:pagecheckerboard="0"
     inkscape:deskcolor="#d1d1d1"
     inkscape:document-units="mm"
     inkscape:export-bgcolor="#ffffff00"
     inkscape:zoom="2.1694726"
     inkscape:cx="265.96326"
     inkscape:cy="185.52896"
     inkscape:window-width="2560"
     inkscape:window-height="1057"
     inkscape:window-x="-8"
     inkscape:window-y="-8"
     inkscape:window-maximized="1"
     inkscape:current-layer="g30"
     showguides="true" /><defs
     id="defs1"><style
       id="style1-44">&#10;.MsftOfcThm_Background1_Fill_v2 {&#10; fill:#FFFFFF; &#10;}&#10;</style><style
       id="style1-6">&#10;.MsftOfcThm_Background1_Fill_v2 {&#10; fill:#FFFFFF; &#10;}&#10;</style></defs><g
     inkscape:label="Layer 1"
     inkscape:groupmode="layer"
     id="layer1"
     transform="translate(-262.17747,-172.91766)"><style
   id="style1">&#10;.MsftOfcThm_MainDark1_Stroke_v2 {&#10; stroke:#000000; &#10;}&#10;</style>&#10;<style
   id="style1-4">&#10;.MsftOfcThm_Text1_Fill_v2 {&#10; fill:#000000; &#10;}&#10;</style>&#10;<style
   id="style1-5">&#10;.MsftOfcThm_MainLight1_Fill_v2 {&#10; fill:#FFFFFF; &#10;}&#10;.MsftOfcThm_Accent3_Stroke_v2 {&#10; stroke:#196B24; &#10;}&#10;</style>&#10;<style
   id="style1-52">&#10;.MsftOfcThm_MainLight1_Fill_v2 {&#10; fill:#FFFFFF; &#10;}&#10;.MsftOfcThm_Accent3_Stroke_v2 {&#10; stroke:#196B24; &#10;}&#10;</style>&#10;<style
   id="style1-58">&#10;.MsftOfcThm_MainLight1_Fill_v2 {&#10; fill:#FFFFFF; &#10;}&#10;.MsftOfcThm_Accent3_Stroke_v2 {&#10; stroke:#196B24; &#10;}&#10;</style>&#10;<style
   id="style1-8">&#10;.MsftOfcThm_MainLight1_Fill_v2 {&#10; fill:#FFFFFF; &#10;}&#10;.MsftOfcThm_MainDark1_Stroke_v2 {&#10; stroke:#000000; &#10;}&#10;</style>&#10;<g
   id="g40"
   transform="matrix(3.8583474,0,0,4.0283943,239.61466,164.54749)"
   style="fill:#163a5f;fill-opacity:1;stroke:#163a5f;stroke-width:0.304379;stroke-dasharray:none;stroke-opacity:1"><path
     d="M 25.3959,8.8345 25.392,8.8383 C 25.4757,9.0702 25.5537,9.305 25.6205,9.5445 25.5527,9.3047 25.48,9.067 25.3959,8.8345 Z"
     fill="#4285f4"
     id="path1-1"
     style="fill:#163a5f;fill-opacity:1;stroke:#163a5f;stroke-width:0.304379;stroke-dasharray:none;stroke-opacity:1" /><path
     d="M 16,2.23 8.929,5.1593 12.9916,9.222 a 4.2487468,4.2487468 0 0 1 6.0292,5.988 L 25,9.23 25.392,8.838 A 9.9872,9.9872 0 0 0 16,2.23 Z"
     fill="#4285f4"
     id="path2"
     style="fill:#163a5f;fill-opacity:1;stroke:#163a5f;stroke-width:0.304379;stroke-dasharray:none;stroke-opacity:1" /><path
     d="M 16,16.4733 A 4.25,4.25 0 0 1 12.9916,9.222 L 8.929,5.1593 A 9.9683,9.9683 0 0 0 6,12.23 c 0,4.4057 2.2651,7.1668 4.93,10 0.1787,0.1828 0.3274,0.3852 0.4959,0.5746 l 7.5608,-7.5609 A 4.2341,4.2341 0 0 1 16,16.4733 Z"
     fill="#ffba00"
     id="path3"
     style="fill:#163a5f;fill-opacity:1;stroke:#163a5f;stroke-width:0.304379;stroke-dasharray:none;stroke-opacity:1" /><path
     d="m 16,2.23 a 10,10 0 0 0 -10,10 11.0918,11.0918 0 0 0 0.5454,3.4546 L 19.3959,2.8346 A 9.9563,9.9563 0 0 0 16,2.23 Z"
     fill="#0066da"
     id="path4"
     style="fill:#163a5f;fill-opacity:1;stroke:#163a5f;stroke-width:0.304379;stroke-dasharray:none;stroke-opacity:1" /><path
     d="m 16.9011,29.12 a 21.83,21.83 0 0 1 4.032,-6.8966 C 23.7976,19.3129 26,16.636 26,12.23 A 9.9585,9.9585 0 0 0 25.3959,8.8342 l -13.97,13.97 a 18.0436,18.0436 0 0 1 3.5914,6.2758 0.9975,0.9975 0 0 0 1.8838,0.04 z"
     fill="#00ac47"
     id="path5"
     style="fill:#163a5f;fill-opacity:1;stroke:#163a5f;stroke-width:0.304379;stroke-dasharray:none;stroke-opacity:1" /><path
     d="m 10.93,22.23 c 0.1787,0.1828 0.3274,0.3852 0.4959,0.5746 v 0 C 11.257,22.6155 11.1083,22.4131 10.93,22.23 Z"
     fill="#0066da"
     opacity="0.5"
     id="path6"
     style="fill:#163a5f;fill-opacity:1;stroke:#163a5f;stroke-width:0.304379;stroke-dasharray:none;stroke-opacity:1" /><path
     d="M 7.207,7.4637 A 9.9357,9.9357 0 0 0 6.45,9.2566 9.9429,9.9429 0 0 1 7.207,7.4637 Z"
     fill="#0066da"
     opacity="0.5"
     id="path7"
     style="fill:#163a5f;fill-opacity:1;stroke:#163a5f;stroke-width:0.304379;stroke-dasharray:none;stroke-opacity:1" /><path
     d="M 6.45,9.2566 A 9.9522,9.9522 0 0 0 6.052,11.2079 9.9537,9.9537 0 0 1 6.45,9.2566 Z"
     fill="#0066da"
     opacity="0.5"
     id="path8"
     style="fill:#163a5f;fill-opacity:1;stroke:#163a5f;stroke-width:0.304379;stroke-dasharray:none;stroke-opacity:1" /><path
     d="m 15.1957,29.3989 c 0.02,0.0248 0.0445,0.0422 0.0664,0.0644 -0.0221,-0.0222 -0.0465,-0.0397 -0.0664,-0.0644 z"
     fill="#ffffff"
     id="path9"
     style="fill:#163a5f;fill-opacity:1;stroke:#163a5f;stroke-width:0.304379;stroke-dasharray:none;stroke-opacity:1" /><path
     d="m 15.7874,29.7429 0.04,0.0066 z"
     fill="#ffffff"
     id="path10"
     style="fill:#163a5f;fill-opacity:1;stroke:#163a5f;stroke-width:0.304379;stroke-dasharray:none;stroke-opacity:1" /><path
     d="m 13.6216,25.9269 c -0.0371,-0.067 -0.0679,-0.1382 -0.1059,-0.2047 0.0376,0.0668 0.0692,0.1378 0.1059,0.2047 z"
     fill="#ffffff"
     id="path11"
     style="fill:#163a5f;fill-opacity:1;stroke:#163a5f;stroke-width:0.304379;stroke-dasharray:none;stroke-opacity:1" /><path
     d="m 15.0173,29.08 q -0.3069,-0.9036 -0.6906,-1.7566 c 0.2526,0.5703 0.486,1.1537 0.6906,1.7566 z"
     fill="#ffffff"
     id="path12"
     style="fill:#163a5f;fill-opacity:1;stroke:#163a5f;stroke-width:0.304379;stroke-dasharray:none;stroke-opacity:1" /><path
     d="m 15.5269,29.6563 c -0.0229,-0.0112 -0.0463,-0.0207 -0.0684,-0.0338 0.0224,0.0131 0.0451,0.0227 0.0684,0.0338 z"
     fill="#ffffff"
     id="path13"
     style="fill:#163a5f;fill-opacity:1;stroke:#163a5f;stroke-width:0.304379;stroke-dasharray:none;stroke-opacity:1" /><path
     d="m 19.7117,23.7529 c -0.249,0.3474 -0.4679,0.7125 -0.6927,1.0741 0.2241,-0.362 0.4443,-0.7264 0.6927,-1.0741 z"
     fill="#ffffff"
     id="path14"
     style="fill:#163a5f;fill-opacity:1;stroke:#163a5f;stroke-width:0.304379;stroke-dasharray:none;stroke-opacity:1" /><polygon
     fill="#ffffff"
     points=""
     id="polygon14"
     style="fill:#163a5f;fill-opacity:1;stroke:#163a5f;stroke-width:0.304379;stroke-dasharray:none;stroke-opacity:1" /><path
     d="m 17.0468,28.774 v 0 q 0.3516,-0.887 0.7561,-1.7428 c -0.2713,0.5694 -0.5217,1.1514 -0.7561,1.7428 z"
     fill="#ffffff"
     id="path15"
     style="fill:#163a5f;fill-opacity:1;stroke:#163a5f;stroke-width:0.304379;stroke-dasharray:none;stroke-opacity:1" /><path
     d="m 18.68,25.3584 c -0.2879,0.4957 -0.55,1.0068 -0.8,1.5242 0.25,-0.5179 0.5131,-1.0279 0.8,-1.5242 z"
     fill="#ffffff"
     id="path16"
     style="fill:#163a5f;fill-opacity:1;stroke:#163a5f;stroke-width:0.304379;stroke-dasharray:none;stroke-opacity:1" /><path
     d="M 8.929,5.1593 A 9.9683,9.9683 0 0 0 6,12.23 11.0918,11.0918 0 0 0 6.5454,15.6846 L 13,9.23 Z"
     fill="#ea4435"
     id="path17"
     style="fill:#163a5f;fill-opacity:1;stroke:#163a5f;stroke-width:0.304379;stroke-dasharray:none;stroke-opacity:1" /></g></g></svg>
