<?xml version="1.0" encoding="UTF-8" standalone="no"?>
<!-- Created with Inkscape (http://www.inkscape.org/) -->

<svg
   width="87.342537mm"
   height="88.605438mm"
   viewBox="0 0 87.342537 88.605438"
   version="1.1"
   id="svg1"
   xml:space="preserve"
   sodipodi:docname="CAPITULO ESTUDIANTIL LOGO SVG.svg"
   inkscape:version="1.3 (0e150ed6c4, 2023-07-21)"
   xmlns:inkscape="http://www.inkscape.org/namespaces/inkscape"
   xmlns:sodipodi="http://sodipodi.sourceforge.net/DTD/sodipodi-0.dtd"
   xmlns="http://www.w3.org/2000/svg"
   xmlns:svg="http://www.w3.org/2000/svg"><sodipodi:namedview
     id="namedview1"
     pagecolor="#ffffff"
     bordercolor="#000000"
     borderopacity="0.25"
     inkscape:showpageshadow="2"
     inkscape:pageopacity="0.0"
     inkscape:pagecheckerboard="0"
     inkscape:deskcolor="#d1d1d1"
     inkscape:document-units="mm"
     inkscape:export-bgcolor="#ffffff00"
     inkscape:zoom="2.1694726"
     inkscape:cx="265.96326"
     inkscape:cy="185.52896"
     inkscape:window-width="2560"
     inkscape:window-height="1057"
     inkscape:window-x="-8"
     inkscape:window-y="-8"
     inkscape:window-maximized="1"
     inkscape:current-layer="g30"
     showguides="true" /><defs
     id="defs1"><style
       id="style1-44">&#10;.MsftOfcThm_Background1_Fill_v2 {&#10; fill:#FFFFFF; &#10;}&#10;</style><style
       id="style1-6">&#10;.MsftOfcThm_Background1_Fill_v2 {&#10; fill:#FFFFFF; &#10;}&#10;</style></defs><g
     inkscape:label="Layer 1"
     inkscape:groupmode="layer"
     id="layer1"
     transform="translate(-480.41569,-125.749)"><style
   id="style1">&#10;.MsftOfcThm_MainDark1_Stroke_v2 {&#10; stroke:#000000; &#10;}&#10;</style>&#10;<style
   id="style1-4">&#10;.MsftOfcThm_Text1_Fill_v2 {&#10; fill:#000000; &#10;}&#10;</style>&#10;<style
   id="style1-5">&#10;.MsftOfcThm_MainLight1_Fill_v2 {&#10; fill:#FFFFFF; &#10;}&#10;.MsftOfcThm_Accent3_Stroke_v2 {&#10; stroke:#196B24; &#10;}&#10;</style>&#10;<style
   id="style1-52">&#10;.MsftOfcThm_MainLight1_Fill_v2 {&#10; fill:#FFFFFF; &#10;}&#10;.MsftOfcThm_Accent3_Stroke_v2 {&#10; stroke:#196B24; &#10;}&#10;</style>&#10;<style
   id="style1-58">&#10;.MsftOfcThm_MainLight1_Fill_v2 {&#10; fill:#FFFFFF; &#10;}&#10;.MsftOfcThm_Accent3_Stroke_v2 {&#10; stroke:#196B24; &#10;}&#10;</style>&#10;<style
   id="style1-8">&#10;.MsftOfcThm_MainLight1_Fill_v2 {&#10; fill:#FFFFFF; &#10;}&#10;.MsftOfcThm_MainDark1_Stroke_v2 {&#10; stroke:#000000; &#10;}&#10;</style>&#10;<g
   id="g41"
   transform="translate(2.0696865,-7.9337981)"><path
     id="path29"
     style="fill:#163a5f;fill-opacity:1;stroke:none;stroke-opacity:1"
     d="m 521.16767,133.6828 -0.23358,0.0579 -0.23409,0.0579 -0.80357,0.93224 -0.80408,0.93225 -0.17054,0.45992 -0.17053,0.45992 0.18759,2.52336 0.18707,2.52336 0.15916,2.00091 0.15916,2.00143 0.0853,1.47898 0.0858,1.47949 0.26562,4.00234 0.26562,4.00234 0.34468,4.26331 0.34468,4.2633 0.0677,0.21756 0.0672,0.21756 h 0.23358 0.23306 l 0.11162,-3.16001 0.11162,-3.16053 V 146.6696 134.10241 l -0.24649,-0.20981 z m 6.84041,0.55087 -0.99012,0.90485 -0.99012,0.90486 -0.21497,0.53071 -0.21498,0.53072 -0.43305,4.35064 -0.43304,4.35064 -0.26976,3.04529 -0.26975,3.04529 -0.23874,2.17506 -0.23926,2.17506 -0.10542,1.1312 -0.10594,1.1312 -0.24236,1.9668 -0.24237,1.96629 v 0.83251 0.83199 l 0.11318,0.11627 0.11317,0.11576 h 0.22324 0.22324 l 0.0796,-0.39171 0.0801,-0.39119 0.33952,-1.74046 0.33951,-1.73995 0.25632,-1.4795 0.25631,-1.47898 0.3576,-2.26239 0.3576,-2.26188 0.22996,-1.13119 0.22996,-1.1312 0.28112,-1.65313 0.28112,-1.65313 0.33228,-1.82728 0.33176,-1.82728 0.23823,-1.30483 0.23771,-1.30534 0.53847,-2.99982 0.53847,-2.99982 -0.0982,-0.26303 -0.0987,-0.26303 h -0.39584 z m -14.60479,0.3483 -0.33952,0.39119 -0.34003,0.3917 -0.53847,0.85628 -0.53846,0.85628 v 0.40308 0.40307 l 0.4377,1.69912 0.43821,1.69861 0.40825,1.65313 0.40824,1.65313 0.32504,1.21853 0.32505,1.21801 0.45113,1.63711 0.45166,1.63763 0.14107,0.71158 0.14108,0.7121 0.59738,2.34921 0.59686,2.34921 0.37311,1.39217 0.37258,1.39216 0.22841,1.09037 0.2279,1.09089 0.10438,0.1726 0.10439,0.17312 0.41548,1.75855 0.41496,1.75854 0.093,0.154 0.0925,0.15348 h 0.23461 0.23461 l 0.0858,-0.14263 0.0863,-0.14211 -0.23358,-1.72857 -0.23357,-1.72806 -0.2558,-1.30483 -0.2558,-1.30535 -0.43822,-2.69699 -0.43821,-2.69751 -0.25218,-1.30535 -0.25218,-1.30483 -0.78704,-4.87257 -0.78703,-4.87257 -0.0723,-0.52193 -0.0729,-0.52194 -0.31213,-1.74046 -0.31212,-1.73994 -0.10749,-0.69608 -0.10748,-0.69609 -0.18346,-0.47852 -0.18345,-0.47852 h -0.37413 z m 21.85344,1.39164 -0.98495,0.59325 -0.98495,0.59324 -0.39274,0.43047 -0.39223,0.43046 -0.51004,1.71721 -0.50953,1.71721 -0.34572,1.30535 -0.34623,1.30482 -0.48111,1.82728 -0.48111,1.82728 -0.61753,2.17506 -0.61805,2.17506 -0.39636,1.4795 -0.39635,1.47898 -0.33797,1.04438 -0.33848,1.04386 -0.60513,2.2624 -0.60513,2.26239 -0.2589,1.03715 -0.25942,1.03715 v 0.41082 0.41135 l 0.27854,-0.0563 0.27905,-0.0563 0.13798,-0.26096 0.13746,-0.26097 0.78341,-2.17506 0.78342,-2.17506 0.59634,-1.65365 0.59583,-1.65313 0.47439,-1.39216 0.47439,-1.39216 0.6227,-1.73995 0.6227,-1.73994 0.2589,-0.69609 0.25942,-0.69608 0.22531,-0.69608 0.22531,-0.69608 1.61282,-4.35064 1.61282,-4.35064 0.37827,-0.99787 0.37879,-0.99839 -0.21291,-0.26355 -0.21342,-0.26355 h -0.22479 z m -28.868,0.69608 -0.68058,1.38855 -0.6811,1.38803 v 0.21342 0.21291 l 1.54926,3.40186 1.54875,3.40134 0.39015,0.87023 0.39068,0.87023 1.13223,2.61018 1.13275,2.61018 0.97926,2.17557 0.97979,2.17507 0.88315,2.0624 0.88367,2.06241 0.99477,2.15749 0.99425,2.15749 h 0.24753 0.24753 l 0.0956,-0.25528 0.0956,-0.25528 -0.51935,-1.44126 -0.51935,-1.44177 -0.81029,-2.34921 -0.80977,-2.34921 -0.61495,-1.60559 -0.61495,-1.6061 v -0.0904 -0.0899 l -0.86868,-2.39366 -0.86919,-2.39313 -0.90021,-2.61018 -0.9002,-2.61017 -0.84129,-2.43655 -0.8413,-2.43602 -0.43046,-1.27021 -0.43047,-1.26969 -0.27285,-0.42685 -0.27233,-0.42685 h -0.33383 z m 35.65777,2.45463 -1.18597,0.39843 -1.18649,0.39843 -0.39378,0.26458 -0.39377,0.26458 -1.08573,2.41691 -1.08572,2.41639 -2.02416,4.35064 -2.02417,4.35064 -1.0697,2.17506 -1.07022,2.17506 -0.27544,0.52245 -0.27543,0.52193 -0.66456,1.49603 -0.66456,1.49603 -0.69246,1.43764 -0.69298,1.43816 v 0.29972 0.30024 l 0.11317,0.11576 0.11317,0.11627 h 0.13746 0.13694 l 0.2837,-0.56586 0.28371,-0.56534 1.14463,-1.93373 1.14412,-1.93425 0.11007,-0.3545 0.10955,-0.3545 0.63717,-1.01803 0.63717,-1.01802 1.50275,-2.69699 1.50275,-2.69751 1.27073,-2.26188 1.27072,-2.2624 0.93431,-1.65313 0.93379,-1.65312 1.50431,-2.52336 1.5043,-2.52336 5.1e-4,-0.37311 5.2e-4,-0.37259 -0.24495,-0.0966 z m -41.91992,0.48266 -0.25942,0.40618 -0.25941,0.40618 -0.25994,1.26503 -0.25941,1.26504 0.25166,0.61857 0.25218,0.61805 2.59003,3.81992 2.59054,3.81992 0.67903,1.09193 0.67851,1.09244 2.04793,3.03289 2.04742,3.03237 2.11099,3.20084 2.11046,3.20135 0.46199,0.51005 0.46199,0.51005 0.17466,-0.11059 0.17415,-0.11059 v -0.28474 -0.28473 l -1.89652,-3.4029 -1.89704,-3.40289 -1.47072,-2.52336 -1.47019,-2.52336 -1.57406,-2.78433 -1.57355,-2.78381 -1.57665,-2.87165 -1.57665,-2.87115 -1.00821,-1.91409 -1.00769,-1.9141 -0.27078,-0.0543 z m 45.3223,4.11086 -0.42633,0.41083 -0.42582,0.41083 -1.72082,2.54765 -1.72031,2.54713 -1.38855,1.9606 -1.38854,1.96009 -1.39165,1.95492 -1.39216,1.95543 -1.06919,1.49449 -1.06867,1.49448 -1.52755,2.12442 -1.52756,2.12493 -0.89142,1.33842 -0.8909,1.33842 v 0.21911 0.21962 h 0.24495 0.24546 l 0.73071,-0.89968 0.7307,-0.89969 0.77722,-0.88418 0.77773,-0.88367 1.05368,-1.39216 1.05368,-1.39217 1.53272,-1.82728 1.53273,-1.82727 0.62476,-0.7798 0.62477,-0.77928 3.75378,-4.61522 3.75378,-4.61471 1.13378,-1.29243 1.13378,-1.29242 -0.0506,-0.36071 -0.0501,-0.3607 h -1.387 z m -51.23719,0.10025 -0.3116,0.23358 -0.31213,0.2341 -0.0718,1.6831 -0.0718,1.6831 3.63027,3.77548 3.63027,3.77548 6.42183,6.74326 6.42131,6.74325 h 0.23771 0.2372 v -0.39687 -0.39688 l -2.41846,-2.97036 -2.41897,-2.97036 -2.29134,-2.76004 -2.29133,-2.76003 -0.76378,-0.98392 -0.76377,-0.98392 -2.29134,-2.74764 -2.29133,-2.74763 -1.83451,-2.40916 -1.83452,-2.40864 -0.30592,-0.16795 z m 56.6198,4.68499 -0.37103,0.20102 -0.37052,0.20051 -6.19911,6.19445 -6.19962,6.19445 -3.85713,3.80132 -3.85661,3.80184 v 0.24443 0.24443 h 0.25476 0.25477 l 1.73943,-1.48053 1.73943,-1.48002 1.81591,-1.60868 1.81591,-1.60869 1.64847,-1.39216 1.64848,-1.39217 1.37253,-1.2299 1.37304,-1.2299 4.66742,-4.04419 4.66793,-4.0442 0.2465,-0.35967 0.24701,-0.35967 -0.39274,-0.32607 -0.39326,-0.3266 h -0.92604 z m -61.58073,0.82062 -0.27751,0.23616 -0.27801,0.23616 0.0713,1.52136 0.0708,1.52135 0.32866,0.37259 0.32866,0.37207 2.29288,1.61851 2.29237,1.61799 1.22421,0.93172 1.22422,0.93173 1.53634,1.10639 1.53582,1.10639 1.77354,1.32964 1.77353,1.33015 1.89963,1.39216 1.89911,1.39216 1.37459,1.03612 1.37408,1.03611 1.17564,0.83457 1.17615,0.83458 h 0.30903 0.30954 v -0.23358 -0.23358 l -1.06712,-1.02784 -1.06712,-1.02836 -2.53989,-2.19263 -2.53938,-2.19263 -1.54048,-1.28778 -1.54099,-1.28778 -2.1084,-1.7849 -2.1084,-1.78542 -1.33687,-1.17306 -1.33635,-1.17305 -2.79414,-2.52336 -2.79415,-2.52336 -0.32091,-0.15503 z m 65.23374,5.09633 -0.82475,0.5364 -0.82528,0.53589 -1.20251,0.91105 -1.20251,0.91054 -3.64939,2.51716 -3.64887,2.51664 -0.50901,0.36019 -0.50953,0.36018 -5.09168,3.44682 -5.09168,3.44734 -0.46716,0.44028 -0.46663,0.44028 v 0.14108 0.14159 h 0.25889 0.2589 l 1.14154,-0.60151 1.14153,-0.601 1.52755,-0.95084 1.52704,-0.95033 2.97036,-1.77509 2.97036,-1.77509 2.48926,-1.50223 2.48977,-1.50172 1.41438,-0.85111 1.41387,-0.85162 1.69757,-0.99374 1.69706,-0.99426 1.52755,-0.85214 1.52756,-0.85163 v -0.52245 -0.52193 l -0.59377,-0.30437 -0.59428,-0.30386 -0.68781,-5.2e-4 z m -69.66551,1.04387 -0.10801,0.28835 -0.108,0.28835 0.21187,1.0511 0.21188,1.05059 0.30902,0.61856 0.30954,0.61857 2.85926,1.37976 2.85977,1.38028 4.58267,2.28565 4.58266,2.28616 3.13573,1.55443 3.13624,1.55494 1.95544,0.98961 1.95595,0.99012 0.46716,0.0103 0.46664,0.0109 v -0.23409 -0.23409 l -0.29714,-0.26821 -0.29714,-0.2682 -2.7156,-1.58853 -2.7156,-1.58905 -1.40198,-0.82372 -1.40198,-0.82372 -0.9741,-0.58653 -0.9741,-0.58705 -3.05511,-1.78128 -3.05511,-1.78129 -3.08198,-1.84485 -3.08199,-1.84433 -1.56166,-1.0511 -1.56166,-1.05161 h -0.3266 z m 72.98727,5.04672 -1.65158,0.84697 -1.65158,0.8475 -1.2733,0.56224 -1.27279,0.56275 -1.35806,0.61288 -1.35754,0.61237 -1.10329,0.5209 -1.10329,0.52038 -2.46084,1.09502 -2.46134,1.09503 -2.12132,0.94981 -2.12184,0.94981 -2.20658,1.00201 -2.20607,1.00149 -0.76377,0.44493 -0.76378,0.44494 -0.0641,0.0486 -0.0636,0.0486 0.10748,0.28629 0.10698,0.2868 0.29558,-0.12661 0.29559,-0.1266 0.50953,-0.18139 0.50902,-0.1819 1.52755,-0.56947 1.52756,-0.56948 2.33525,-0.88056 2.33578,-0.88057 h 0.0842 0.0842 l 1.48415,-0.59686 1.48363,-0.59687 3.05511,-1.15548 3.05511,-1.15497 2.63085,-1.02216 2.63085,-1.02164 1.35185,-0.48111 1.35186,-0.48111 0.4594,-0.44287 0.45941,-0.44286 0.11007,-0.39274 0.11007,-0.39274 -0.50798,-0.5209 -0.50798,-0.52038 h -0.44028 z m -75.72044,1.54564 -0.45269,0.0537 -0.45268,0.0537 -0.0522,0.37517 -0.0522,0.37568 0.32918,0.3204 0.32918,0.32091 0.53072,1.08572 0.53123,1.08624 0.63459,0.27595 0.6351,0.27647 1.86707,0.5054 1.86707,0.50487 1.86655,0.52659 1.86707,0.5271 0.84853,0.24339 0.84904,0.24288 2.03657,0.62167 2.03657,0.62115 3.05511,0.89245 3.05511,0.89245 1.35806,0.42013 1.35754,0.42065 1.69757,0.5085 1.69705,0.50849 0.63666,0.01 0.63665,0.0103 v -0.32918 -0.32918 l -0.7214,-0.29766 -0.72141,-0.29765 -2.12183,-0.786 -2.12132,-0.78652 -2.29133,-0.84232 -2.29134,-0.84181 -1.86706,-0.71107 -1.86707,-0.71159 -2.15439,-0.76842 -2.15388,-0.76843 -3.95635,-1.55805 -3.95583,-1.55856 -1.24437,-0.54622 z m -1.82004,1.39061 -0.1757,0.67024 -0.17622,0.66973 -0.34623,1.42782 -0.34675,1.42782 -0.2372,1.61075 -0.23719,1.61128 -0.19999,1.17202 -0.2005,1.17202 0.0822,4.39663 0.0822,4.39663 0.43201,2.36213 0.43202,2.36213 0.52813,2.1885 0.52865,2.18901 0.75913,2.05259 0.75964,2.05207 1.20303,2.35851 1.20303,2.35903 0.92087,1.44953 0.92087,1.45004 1.52549,2.07067 1.52497,2.07068 1.05162,1.15238 1.05161,1.15238 1.7539,1.55288 1.75442,1.55288 1.56218,1.18132 1.56166,1.18184 0.99115,0.64854 0.99064,0.64854 2.06447,1.09916 2.06396,1.09864 1.77818,0.81907 1.77819,0.81907 1.87069,0.57826 1.8712,0.57826 2.03657,0.35708 2.03708,0.35709 2.12132,0.18862 2.12184,0.18913 1.01802,0.0496 1.01854,0.0506 1.29347,0.0331 1.29346,0.0331 2.52542,-0.26665 2.52543,-0.26665 1.69757,-0.3607 1.69706,-0.3607 2.46134,-0.75603 2.46084,-0.75603 1.01182,-0.36018 1.01131,-0.36019 1.14205,-0.5395 1.14205,-0.54002 0.0982,-0.262 0.0982,-0.26199 -0.19327,-0.23927 -0.19379,-0.23874 h -2.41949 -2.41949 l -1.08159,-1.17926 -1.08159,-1.17874 -0.78289,-0.95291 -0.7829,-0.95291 -0.19327,-0.37983 -0.19275,-0.38033 v -6.3283 -6.3283 l 0.2036,-0.20877 0.20412,-0.20877 h 0.98444 0.98443 l 0.339,0.3483 0.33952,0.34778 v 5.56245 5.56245 l 1.17874,1.34359 1.17873,1.34359 0.3912,0.22221 0.39119,0.22272 1.16375,0.006 1.16375,0.006 1.27124,-1.26194 1.27124,-1.26142 0.23823,-0.47026 0.23823,-0.46974 V 206.90686 203.69 l -0.15141,-0.40307 -0.1509,-0.40256 -1.048,-1.21802 -1.04748,-1.21853 -0.34778,-0.16588 -0.3483,-0.16588 -0.23513,0.3297 -0.23512,0.32969 v 3.78892 3.78943 l -0.32815,0.17983 -0.32814,0.18036 h -0.91106 -0.91054 l -0.2036,-0.20878 -0.20361,-0.20877 -0.016,-4.62039 -0.016,-4.62039 -0.11162,-1.58078 -0.1111,-1.58078 -1.78232,-2.03347 -1.78181,-2.03347 -0.63665,-0.79478 -0.63665,-0.79427 v -5.35368 -5.35368 l 0.19585,-0.59169 0.19585,-0.59118 0.32556,-0.47956 0.32557,-0.47955 -0.0558,-0.30386 -0.0563,-0.30334 -0.67748,-0.0512 -0.67748,-0.0512 -0.29559,0.22479 -0.29559,0.22531 -0.16846,1.65313 -0.16795,1.65364 -0.25632,1.35754 -0.25631,1.35806 -0.17725,0.339 -0.17673,0.33848 h -0.33848 -0.339 l -0.0946,0.25218 -0.094,0.25166 0.30592,0.53124 0.30593,0.53072 -0.28784,0.29507 -0.28732,0.29455 -0.39636,-0.38137 -0.39636,-0.38189 h -0.27595 -0.27647 l -0.11524,0.19172 -0.11524,0.1912 0.53899,0.78445 0.5395,0.78445 -0.0522,0.45837 -0.0517,0.45837 -0.28422,0.0548 -0.28422,0.0553 -0.45527,-0.79737 -0.45578,-0.79685 -0.32453,-0.17828 -0.32453,-0.17828 -0.1664,0.10542 -0.1664,0.10542 v 0.28422 0.28422 l 0.67903,1.1715 0.67903,1.17151 v 0.28577 0.28577 l -0.1757,0.33641 -0.1757,0.33642 h -0.22014 -0.21963 l -0.18965,-0.3912 -0.18913,-0.3917 -0.37466,-0.95705 -0.37517,-0.95705 -0.29869,-0.32866 -0.29921,-0.32918 -0.26871,0.10594 -0.26872,0.10593 v 0.27441 0.2744 l 0.70435,1.92701 0.70487,1.92702 -0.15297,0.43976 -0.15296,0.43977 -0.29249,0.1881 -0.29249,0.1881 -0.17259,-0.17725 -0.17312,-0.17725 -0.15606,-0.77618 -0.15658,-0.77566 -0.27957,-1.30535 -0.27906,-1.30483 -0.24856,-0.3917 -0.24856,-0.39171 h -0.25632 -0.2558 l -0.0873,0.23358 -0.0873,0.23357 0.45527,2.68098 0.45527,2.68149 0.0739,0.43511 0.0744,0.43512 -0.5116,0.50126 -0.5116,0.50126 -0.23151,-0.0915 -0.23151,-0.0909 -0.2036,-2.67218 -0.20361,-2.67219 5.2e-4,-0.72554 5.2e-4,-0.72554 -0.10336,-0.27492 -0.10283,-0.27543 h -0.32556 -0.32557 l -0.1788,0.47852 -0.1788,0.47853 0.0486,3.76772 0.0481,3.76773 -0.23306,0.28836 -0.23358,0.28835 -0.59531,0.25477 -0.5948,0.25476 -0.14366,-0.22117 -0.14314,-0.22169 0.0935,-0.60875 0.0935,-0.60927 0.23616,-1.39216 0.23616,-1.39216 0.2005,-2.38022 0.20051,-2.3797 -0.11266,-0.18707 -0.11265,-0.18655 h -0.32298 -0.32246 l -0.18914,0.71882 -0.18861,0.71882 -0.14935,0.8909 -0.14986,0.8909 -0.27182,1.47898 -0.27182,1.4795 -0.32297,2.00091 -0.32298,2.00143 -0.35864,0.29869 -0.35811,0.2992 -0.59015,0.11317 -0.58963,0.11369 -0.0951,-0.0977 -0.0956,-0.0977 0.21394,-0.92397 0.21342,-0.92346 0.5457,-1.91461 0.54571,-1.91409 0.19998,-0.69609 0.19999,-0.69608 0.39481,-1.39216 0.39481,-1.39216 0.0889,-0.38344 0.0889,-0.38344 -0.21188,-0.29714 -0.21239,-0.29766 -0.24288,0.0956 -0.24288,0.0956 -0.62425,1.62936 -0.62425,1.62936 -1.34772,3.74137 -1.34721,3.74138 -0.2067,0.46405 -0.20671,0.46354 -0.36122,0.0997 -0.36121,0.0992 -0.72141,0.002 -0.7214,0.002 v -0.24391 -0.24443 l 2.80035,-5.76606 2.80086,-5.76606 v -0.34675 -0.34726 l -0.25683,-0.10077 -0.25683,-0.10129 -0.21394,0.18191 -0.21343,0.1819 -1.28778,2.23035 -1.28777,2.23036 -1.19269,2.08824 -1.1927,2.08825 -0.96014,1.76888 -0.96015,1.76837 -0.23978,0.2036 -0.23926,0.20412 -1.11311,-0.12247 -1.11363,-0.12196 -0.0966,-0.16123 -0.0966,-0.16071 1.06919,-1.51515 1.06918,-1.51516 2.46445,-3.39359 2.46393,-3.39359 0.97875,-1.39113 0.97876,-1.39164 v -0.28681 -0.28629 l -0.27906,-0.11007 -0.27905,-0.10955 -0.33383,0.30851 -0.33435,0.30902 -2.05982,2.50631 -2.06034,2.50682 -1.10329,1.35444 -1.10278,1.35444 -1.84898,2.28772 -1.84846,2.28823 -0.2434,0.0956 -0.2434,0.0956 -0.70848,-0.20619 -0.70848,-0.2067 -0.46664,-0.18604 -0.46664,-0.18655 v -0.31419 -0.31471 l 3.94601,-3.81114 3.94601,-3.81113 2.25465,-2.13993 2.25412,-2.13992 0.17622,-0.33693 0.1757,-0.33744 -0.20826,-0.25735 -0.20825,-0.25735 -0.22066,0.0512 -0.22014,0.0512 -2.15129,1.82676 -2.15129,1.82728 -1.3162,1.1312 -1.3162,1.13119 -2.09858,1.82108 -2.09806,1.82056 -1.48415,1.35496 -1.48363,1.35495 h -0.34623 -0.34572 l -0.98133,-0.50798 -0.98082,-0.50746 -0.21343,-0.26355 -0.21342,-0.26355 0.30954,-0.31626 0.31006,-0.31626 5.09065,-3.45043 5.09013,-3.45096 2.88509,-1.94406 2.88561,-1.94355 0.0512,-0.36949 0.0517,-0.36949 -0.28422,-0.11213 -0.28526,-0.11214 -1.12447,0.63975 -1.12448,0.63924 -2.93574,1.75596 -2.93626,1.75649 -1.1374,0.67076 -1.13739,0.67076 -2.37609,1.39888 -2.37659,1.3994 -1.01751,0.65784 -1.01855,0.65732 -0.62942,0.30334 -0.62941,0.30283 -0.64338,-0.46148 -0.64388,-0.46095 -0.63562,-0.60151 -0.63407,-0.601 0.0863,-0.23151 0.0863,-0.23099 1.9916,-0.89607 1.9911,-0.89607 3.5636,-1.59319 3.56464,-1.59318 1.06092,-0.50953 1.06195,-0.50901 h 0.0951 0.0951 l 0.90537,-0.42427 0.90486,-0.42478 1.33325,-0.54467 1.33273,-0.54518 1.2728,-0.64027 1.2733,-0.64028 v -0.34778 -0.3483 l -0.45423,-0.0532 -0.45424,-0.0538 -0.81907,0.34107 -0.81856,0.34106 -1.95181,0.73536 -1.95182,0.73535 -2.5461,0.92708 -2.54558,0.92656 -1.86707,0.70796 -1.86707,0.70745 -1.35806,0.49713 -1.35754,0.49713 -1.99988,0.8046 -1.99936,0.8046 h -0.41909 -0.4191 l -0.31677,-0.32504 -0.3173,-0.32505 -0.70125,-0.95239 -0.70125,-0.9524 v -0.19844 -0.19792 l 0.46664,-0.11472 0.46664,-0.11421 6.28024,-1.6061 6.27972,-1.60559 2.71559,-0.65525 2.7156,-0.65526 2.42156,-0.61288 2.42155,-0.61237 0.27906,-0.20929 0.27957,-0.2098 -0.10697,-0.28577 -0.10749,-0.28629 -0.55656,0.003 -0.55707,0.003 -1.4428,0.2465 -1.44281,0.24649 -3.05511,0.54105 -3.05511,0.54157 -0.25425,0.0754 -0.25476,0.076 -3.47938,0.61288 -3.47937,0.6134 -3.34553,0.59841 -3.34554,0.59893 -0.6134,0.17363 -0.61339,0.17364 -0.25787,-0.10181 -0.25838,-0.10128 -0.66249,-1.44384 -0.66301,-1.44332 v -0.17881 -0.17828 l 0.29714,-0.15968 0.29714,-0.15968 2.97036,-0.19947 2.97036,-0.19999 0.93328,-0.077 0.93327,-0.0775 4.1584,-0.27234 4.15841,-0.27285 2.29133,-0.15348 2.29133,-0.15399 2.63085,-0.19431 2.63085,-0.19482 0.38189,-0.16278 0.38188,-0.16329 v -0.25425 -0.25477 l -0.21239,-0.14056 -0.21187,-0.14107 -14.08338,-0.0868 -14.08338,-0.0868 -0.37672,-1.47949 -0.37672,-1.47898 -0.009,-0.65267 -0.009,-0.65268 0.12712,0.006 0.12712,0.006 0.3297,0.25528 0.3297,0.25528 h 0.88831 0.88884 l 1.24282,0.17208 1.24281,0.17209 1.95182,0.17053 1.95182,0.17105 1.27331,0.18138 1.27279,0.1819 2.37608,0.27337 2.3766,0.27285 0.84853,0.0827 0.84853,0.0822 3.81888,0.4191 3.81889,0.41961 1.73943,0.1173 1.73995,0.11834 v -0.3669 -0.3669 l -0.29663,-0.16072 -0.29714,-0.16019 -0.93327,-0.12144 -0.93328,-0.12093 -0.60875,-0.15864 -0.60823,-0.15917 -1.51308,-0.27491 -1.51361,-0.27441 -1.01802,-0.16071 -1.01855,-0.1602 -1.4428,-0.2713 -1.44229,-0.27078 -1.35806,-0.24392 -1.35754,-0.24287 -1.52755,-0.26407 -1.52756,-0.26407 -1.61282,-0.26303 -1.6123,-0.26303 -4.19871,-0.8506 -4.19871,-0.85111 -0.27802,-0.23668 -0.27854,-0.23667 0.14108,-1.74357 0.14056,-1.74408 0.008,-1.04438 0.008,-1.04386 -0.37259,-0.0543 z m 45.32694,1.37511 -0.22634,0.0765 -0.22634,0.0765 -0.0569,0.39739 -0.0568,0.3974 0.22686,-0.0765 0.22634,-0.0765 0.0568,-0.39739 z m 34.00206,2.44998 -1.4428,0.43047 -1.44281,0.42994 -6.95875,1.76269 -6.95875,1.7632 -1.27279,0.33641 -1.2733,0.33693 -2.12132,0.55087 -2.12183,0.55087 -1.07849,0.32505 -1.07849,0.32556 h -0.28939 -0.28887 l -0.31316,0.23461 -0.31316,0.23461 0.13281,0.22014 0.13281,0.22014 0.8692,-0.0899 0.8692,-0.0894 2.46083,-0.46923 2.46135,-0.46922 1.27279,-0.24081 1.27279,-0.24133 2.12183,-0.35088 2.12132,-0.35089 2.20658,-0.41651 2.20659,-0.41651 1.69705,-0.30437 1.69757,-0.30489 0.60617,-0.21705 0.60668,-0.21755 2.02416,-0.37569 2.02417,-0.37569 0.99477,-0.1757 0.99477,-0.17622 0.61753,-0.20722 0.61805,-0.20774 v -0.33538 -0.33538 l -0.81442,-0.59944 -0.81442,-0.59997 -0.71313,-0.077 z m -15.33239,9.24801 -0.26872,0.10594 -0.26872,0.10542 v 0.39533 0.3948 l 0.26613,0.22635 0.26562,0.22634 0.2434,0.48214 0.24339,0.48266 v 2.0624 2.06189 l -0.2036,0.20878 -0.20361,0.20877 h -0.82579 -0.82579 l -0.3147,-0.1726 -0.31471,-0.1726 -0.11938,-1.17615 -0.11989,-1.17564 -0.15348,-0.30283 -0.15399,-0.30282 -0.49558,-0.26303 -0.49557,-0.26252 h -1.61283 -1.61282 l -0.44545,0.20774 -0.44493,0.20774 -0.24185,0.47956 -0.24184,0.47955 v 4.01061 4.01061 l 0.61391,0.6966 0.61392,0.6966 h 0.30127 0.30179 l 0.10284,-0.27544 0.10283,-0.27492 v -0.94309 -0.94258 h 0.38189 0.38189 l 0.76378,0.90382 0.76378,0.90382 0.30075,0.49868 0.30076,0.49816 0.0605,1.78749 0.061,1.78697 0.23254,0.45113 0.23255,0.45062 2.20658,2.47479 2.20659,2.47426 0.63717,0.7152 0.63665,0.71521 0.17725,0.65784 0.17725,0.65732 -0.0506,4.57698 -0.0501,4.57699 -1.33428,1.50636 -1.33429,1.50689 0.0982,0.26303 0.0987,0.26303 h 0.32504 0.32505 l 1.16478,-0.81752 1.16479,-0.81804 1.44332,-1.20354 1.44333,-1.20354 1.82107,-1.80971 1.8216,-1.80971 0.30024,-0.56276 0.30024,-0.56327 -0.0589,-9.74462 -0.0589,-9.74515 0.24236,-0.71365 0.24236,-0.71365 1.07229,-1.94613 1.07177,-1.94614 0.16794,0.0574 0.16795,0.0574 -0.0269,9.99836 -0.0269,9.99784 0.15141,0.23461 0.15141,0.23461 0.31781,-0.0625 0.31833,-0.0625 0.55449,-0.86764 0.55449,-0.86817 1.3379,-2.69699 1.3379,-2.69751 0.43357,-1.1312 0.43356,-1.13119 0.44029,-1.39165 0.43976,-1.39216 0.32143,-1.39217 0.32143,-1.39216 0.36638,-1.78697 0.36587,-1.78697 0.0186,-3.32538 0.0186,-3.32538 -0.39274,-0.32608 -0.39223,-0.32556 h -2.70526 -2.70526 l -0.48576,0.25735 -0.48576,0.25787 -1.52342,2.74401 -1.52342,2.74454 -1.39733,2.78433 -1.39733,2.78432 -1.27951,2.52284 -1.28002,2.52336 -0.3545,0.49558 -0.35502,0.49558 -0.45837,0.24391 -0.45837,0.24443 h -0.84388 -0.84387 l -0.49816,-0.42995 -0.49765,-0.42943 -2.10323,-2.55333 -2.10375,-2.55385 -1.73994,-2.07894 -1.73943,-2.07895 v -0.39584 -0.39636 l 0.35192,-0.45837 0.3514,-0.45837 h 0.61029 0.6103 l 2.82464,3.00189 2.82411,3.00188 0.72709,0.81959 0.72709,0.82011 0.33176,0.108 0.33228,0.108 0.23461,-0.19998 0.23513,-0.19999 1.01182,-2.14612 1.01183,-2.14613 1.00614,-1.80092 1.00562,-1.80144 0.98909,-2.00143 0.98857,-2.00091 0.22944,-0.34313 0.22996,-0.34365 v -0.44855 -0.44855 l -0.2036,-0.20878 -0.20361,-0.20877 h -5.04413 z" /><rect
     style="fill:#163a5f;fill-opacity:1;stroke:none;stroke-width:0.363938;stroke-linejoin:bevel;stroke-opacity:1;paint-order:stroke markers fill"
     id="rect29-7"
     width="0.81871617"
     height="1.2666031"
     x="552.34003"
     y="57.647789"
     ry="0"
     transform="matrix(0.98060591,0.19598994,-0.28077442,0.95977379,0,0)" /><rect
     style="fill:#163a5f;fill-opacity:1;stroke:none;stroke-width:0.293979;stroke-linejoin:bevel;stroke-opacity:1;paint-order:stroke markers fill"
     id="rect29-7-1"
     width="0.54677075"
     height="1.2375056"
     x="549.96954"
     y="3.1113069"
     ry="0"
     transform="matrix(0.95596866,0.29346876,-0.18709923,0.98234102,0,0)" /><rect
     style="fill:#163a5f;fill-opacity:1;stroke:none;stroke-width:0.293979;stroke-linejoin:bevel;stroke-opacity:1;paint-order:stroke markers fill"
     id="rect29-7-1-88"
     width="0.54677075"
     height="1.2375056"
     x="531.85699"
     y="86.583862"
     ry="0"
     transform="matrix(0.98934306,0.14560324,-0.03646963,0.99933476,0,0)"
     inkscape:transform-center-x="0.13720212"
     inkscape:transform-center-y="-0.068601061" /><rect
     style="fill:#163a5f;fill-opacity:1;stroke:none;stroke-width:0.293979;stroke-linejoin:bevel;stroke-opacity:1;paint-order:stroke markers fill"
     id="rect29-7-1-8"
     width="0.54677075"
     height="1.2375056"
     x="547.95514"
     y="3.2625902"
     ry="0"
     transform="matrix(0.95596866,0.29346876,-0.18709923,0.98234102,0,0)" /><rect
     style="fill:#163a5f;fill-opacity:1;stroke:none;stroke-width:0.293979;stroke-linejoin:bevel;stroke-opacity:1;paint-order:stroke markers fill"
     id="rect29-7-1-1"
     width="0.54677075"
     height="1.2375056"
     x="550.68579"
     y="-119.9511"
     ry="0"
     transform="matrix(0.867036,0.4982455,-0.40037778,0.91635017,0,0)" /><rect
     style="fill:#163a5f;fill-opacity:1;stroke:none;stroke-width:0.317277;stroke-linejoin:bevel;stroke-opacity:1;paint-order:stroke markers fill"
     id="rect30"
     width="0.49290213"
     height="0.98371285"
     x="542.84241"
     y="-124.56973"
     transform="matrix(0.86255907,0.50595638,-0.47700606,0.8789,0,0)" /><rect
     style="fill:#163a5f;fill-opacity:1;stroke:none;stroke-width:0.317277;stroke-linejoin:bevel;stroke-opacity:1;paint-order:stroke markers fill"
     id="rect30-0"
     width="0.49290213"
     height="0.98371285"
     x="542.84711"
     y="-124.50909"
     transform="matrix(0.86255907,0.50595638,-0.47700606,0.8789,0,0)" /><rect
     style="fill:#163a5f;fill-opacity:1;stroke:none;stroke-width:0.317277;stroke-linejoin:bevel;stroke-opacity:1;paint-order:stroke markers fill"
     id="rect30-3"
     width="0.49290213"
     height="0.98371285"
     x="542.8576"
     y="86.549309"
     transform="matrix(0.98930111,0.14588799,-0.11292384,0.99360365,0,0)" /></g></g></svg>
